SplineFontDB: 3.0
FontName: Skeemat
FullName: skeemat
FamilyName: skeemat
Weight: Regular
Copyright: (c)1998 http://www.grilledcheese.com,  Terrence Curran
Version: 2015-02-21
ItalicAngle: 0
UnderlinePosition: -123
UnderlineWidth: 20
Ascent: 800
Descent: 200
InvalidEm: 0
LayerCount: 2
Layer: 0 0 "Back" 1
Layer: 1 0 "Fore" 0
XUID: [1021 270 -1463357204 13476955]
FSType: 0
OS2Version: 0
OS2_WeightWidthSlopeOnly: 0
OS2_UseTypoMetrics: 1
CreationTime: 904502035
ModificationTime: 1424559496
PfmFamily: 81
TTFWeight: 400
TTFWidth: 5
LineGap: 0
VLineGap: 0
Panose: 0 0 4 0 0 0 0 0 0 0
OS2TypoAscent: 832
OS2TypoAOffset: 0
OS2TypoDescent: -422
OS2TypoDOffset: 0
OS2TypoLinegap: 0
OS2WinAscent: 832
OS2WinAOffset: 0
OS2WinDescent: 422
OS2WinDOffset: 0
HheadAscent: 832
HheadAOffset: 0
HheadDescent: -422
HheadDOffset: 0
OS2SubXSize: 700
OS2SubYSize: 650
OS2SubXOff: 0
OS2SubYOff: 143
OS2SupXSize: 700
OS2SupYSize: 650
OS2SupXOff: 0
OS2SupYOff: 453
OS2StrikeYSize: 50
OS2StrikeYPos: 259
OS2CapHeight: 0
OS2XHeight: 0
OS2Vendor: 'Alts'
OS2UnicodeRanges: 00000000.00000000.00000000.00000000
MarkAttachClasses: 1
DEI: 91125
TtTable: prep
NPUSHB
 17
 11
 11
 10
 10
 9
 9
 8
 8
 3
 3
 2
 2
 1
 1
 0
 0
 1
SCANTYPE
PUSHW_1
 511
SCANCTRL
RCVT
ROUND[Grey]
WCVTP
RCVT
ROUND[Grey]
WCVTP
RCVT
ROUND[Grey]
WCVTP
RCVT
ROUND[Grey]
WCVTP
RCVT
ROUND[Grey]
WCVTP
RCVT
ROUND[Grey]
WCVTP
RCVT
ROUND[Grey]
WCVTP
RCVT
ROUND[Grey]
WCVTP
PUSHB_4
 5
 4
 70
 0
CALL
PUSHB_4
 7
 6
 70
 0
CALL
PUSHB_2
 4
 4
RCVT
ROUND[Grey]
WCVTP
PUSHB_2
 6
 6
RCVT
ROUND[Grey]
WCVTP
EndTTInstrs
TtTable: fpgm
NPUSHB
 1
 0
FDEF
SROUND
RCVT
DUP
PUSHB_1
 3
CINDEX
RCVT
SWAP
SUB
ROUND[Grey]
RTG
SWAP
ROUND[Grey]
ADD
WCVTP
ENDF
EndTTInstrs
ShortTable: cvt  56
  -326
  -21
  421
  778
  35
  119
  36
  265
  36
  59
  323
  107
  23206
  -3177
  15086
  1328
  7492
  -22060
  26683
  -23756
  -13107
  7510
  5105
  -18323
  9481
  -14663
  27740
  7675
  -13216
  32523
  21491
  -29785
  -22266
  4555
  9401
  -19108
  22430
  -22626
  -4097

StartChar: .notdef
Encoding: 65536 -1 0
Width: 500
Flags: HW
LayerCount: 2
Back
Fore
SplineSet
63 0 m 1
 63 832 l 1
 438 832 l 1
 438 0 l 1
 63 0 l 1
125 63 m 1
 375 63 l 1
 375 770 l 1
 125 770 l 1
 125 63 l 1
EndSplineSet
Validated: 1
EndChar

StartChar: exclam
Encoding: 33 33 4
Width: 549
Flags: HW
LayerCount: 2
Back
Fore
SplineSet
479 635 m 1
 478.333333333 637 477.666666667 639.333333333 477 642 c 1
 478.333333333 640 479 637.666666667 479 635 c 1
476 643 m 1
 474 647.666666667 471.333333333 655 468 665 c 1
 472.666666667 655.666666667 475.333333333 648.333333333 476 643 c 1
453 663 m 1
 454 663 l 1
 454 661 l 1
 453 663 l 1
435 702 m 1
 435.666666667 703.333333333 440 705.666666667 448 709 c 1
 435 702 l 1
466 18 m 1
 464 18 l 1
 462 18 l 2
 461.333333333 18 460.333333333 18.6666666667 459 20 c 1
 467 24.6666666667 472.166666667 27 474.5 27 c 128
 476.833333333 27 479 26 481 24 c 1
 477.666666667 23.3333333333 472.666666667 21.3333333333 466 18 c 1
407 692 m 1
 403 693 l 1
 403 695 404.333333333 697.333333333 407 700 c 0
 408.333333333 699.333333333 409.666666667 698.333333333 411 697 c 0
 410.333333333 694.333333333 409 692.666666667 407 692 c 1
417 26 m 1
 422.333333333 26.6666666667 430.666666667 28 442 30 c 1
 453 29 l 1
 447.666666667 27 435.666666667 26 417 26 c 1
370 724 m 2
 367 723 l 1
 368.333333333 727 370 730.333333333 372 733 c 1
 375 732 l 2
 375 731 375 731 375 730 c 0
 375 726.666666667 373.333333333 724.666666667 370 724 c 2
403 56 m 2
 402 56 l 1
 402 57 402 57 402 58 c 0
 402 59.3333333333 402.666666667 60 404 60 c 1
 404 57.3333333333 403.666666667 56 403 56 c 2
385 75 m 1
 384.333333333 75.6666666667 384 76.3333333333 384 77 c 0
 384 79.6666666667 384.666666667 81.3333333333 386 82 c 0
 388 82.6666666667 389.333333333 83 390 83 c 1
 390 83 l 1
 390 81 388.333333333 78.3333333333 385 75 c 1
388 26 m 1
 387.333333333 26.6666666667 387.05982906 27.181240412 387.179487179 27.543721236 c 2
 387 28 l 1
 387.207407407 28.0828532236 l 1
 387.069135802 29.3609510745 388.333333333 31.3333333333 391 34 c 1
 388 26 l 1
307 714 m 1
 308 721 l 1
 309 721 l 2
 309.666666667 721 311 719.333333333 313 716 c 1
 313 714 l 1
 307 714 l 1
412 741 m 2
 403 735 l 257
 401.666666667 735 400.666666667 735.666666667 400 737 c 0
 401.333333333 738.333333333 402 740.666666667 402 744 c 0
 401.333333333 744.666666667 400.81292517 744.928571429 400.43877551 744.785714286 c 2
 400 745 l 1
 399.333333333 744.333333333 398.666666667 743.333333333 398 742 c 0
 396.666666667 740 395.6 738.933333333 394.8 738.8 c 2
 394 739 l 1
 391 746 l 1
 390 746 l 2
 388 746 386.666666667 747 386 749 c 2
 384 753 l 1
 380 749 378 746.666666667 378 746 c 1
 378 746 l 1
 376.666666667 746 376 747.333333333 376 750 c 0
 376 752 375 753 373 753 c 2
 372 753 l 1
 372 753 l 1
 372 751 368.666666667 749.666666667 362 749 c 1
 362 750.333333333 361.666666667 752 361 754 c 0
 360.333333333 754.666666667 359.854166667 754.916666667 359.5625 754.75 c 2
 359 755 l 1
 358.7 754.7 l 1
 357.566666667 754.9 356.666666667 754 356 752 c 0
 354.666666667 749.333333333 353.5 748 352.5 748 c 128
 351.5 748 350.666666667 748.333333333 350 749 c 0
 348 754.333333333 346 757 344 757 c 1
 343 750 l 1
 342.333333333 751.333333333 341 753 339 755 c 0
 337.666666667 756.333333333 336.854043393 756.897435897 336.562130178 756.692307692 c 2
 336 757 l 1
 335.711111111 756.733333333 l 2
 335.237037037 756.911111111 335 756.666666667 335 756 c 0
 334.333333333 754.666666667 333.666666667 753 333 751 c 1
 321 748 l 1
 321 750 320.666666667 752 320 754 c 1
 318 754 l 1
 317.333333333 749.333333333 313.5 745.833333333 306.5 743.5 c 128
 299.5 741.166666667 295.666666667 739.666666667 295 739 c 1
 293 740 l 1
 289.666666667 736.666666667 287.333333333 735 286 735 c 2
 279 738 l 1
 279 732 l 1
 276 732 l 1
 276 733.333333333 275.666666667 734 275 734 c 2
 274.711111111 734.126419753 l 2
 274.903703704 734.042139918 274.666666667 734 274 734 c 0
 272.666666667 733.333333333 271.333333333 733 270 733 c 128
 268.666666667 733 267.666666667 733.333333333 267 734 c 0
 260.333333333 731.333333333 242.5 726.833333333 213.5 720.5 c 128
 184.5 714.166666667 164.333333333 704.333333333 153 691 c 0
 151.666666667 690.333333333 151.060606061 689.220385675 151.181818182 687.661157025 c 2
 151 687 l 1
 151.166666667 686.444444444 l 2
 151.055555556 685.481481481 151.333333333 684.333333333 152 683 c 1
 154.666666667 683.666666667 162.833333333 687.166666667 176.5 693.5 c 128
 190.166666667 699.833333333 200.333333333 705.333333333 207 710 c 0
 208.333333333 710 210.666666667 710.666666667 214 712 c 0
 216.666666667 713.333333333 219.333333333 714 222 714 c 0
 223 714 223 714 225 714 c 1
 220.333333333 711.333333333 215.333333333 708.666666667 210 706 c 2
 187 695 l 2
 178.333333333 691 172.666666667 685 170 677 c 0
 170.666666667 675.666666667 171.666666667 675 173 675 c 1
 173 679 l 1
 180.333333333 687 201.666666667 697.333333333 237 710 c 0
 239.666666667 711.333333333 243.333333333 712 248 712 c 1
 238 701.333333333 231.333333333 692.333333333 228 685 c 0
 224.666666667 673.666666667 215.166666667 655.5 199.5 630.5 c 128
 183.833333333 605.5 175.666666667 592.666666667 175 592 c 1
 168 599 l 1
 168 605.666666667 164.666666667 614.666666667 158 626 c 1
 157 626 l 2
 152.333333333 626 148 620 144 608 c 1
 142.666666667 610 141.240315485 610.929463481 139.720946456 610.788390444 c 1
 139.906982152 610.929463481 139.833333333 611 139.5 611 c 128
 139.166666667 611 139.005193756 610.929463481 139.015581269 610.788390444 c 1
 137.671860423 610.929463481 136 610 134 608 c 0
 130 604.666666667 128 602 128 600 c 0
 124.666666667 598 123 594.666666667 123 590 c 0
 123 587 123 587 123 585 c 0
 123.666666667 583.666666667 124.432506887 583.060606061 125.297520661 583.181818182 c 1
 125.099173554 583.060606061 125.166666667 583 125.5 583 c 128
 125.833333333 583 126.013888889 583.055555556 126.041666667 583.166666667 c 0
 126.680555556 583.055555556 127.333333333 583.333333333 128 584 c 128
 128.666666667 584.666666667 129.666666667 585 131 585 c 0
 131.666666667 585 132.666666667 584.666666667 134 584 c 1
 135 584 l 1
 135.455418381 584.148148148 l 2
 137.151806127 584.049382716 139.666666667 585.333333333 143 588 c 0
 144 588 144 588 145 588 c 0
 147 588 148.666666667 587 150 585 c 0
 151.333333333 582.333333333 152.666666667 581 154 581 c 256
 155.333333333 581 156.666666667 581.333333333 158 582 c 1
 159.333333333 576 160.333333333 573 161 573 c 1
 161 573 l 1
 161 571 162.333333333 568.666666667 165 566 c 1
 175.666666667 569.333333333 182 571 184 571 c 2
 185 571 l 1
 184.333333333 568.333333333 182.666666667 564 180 558 c 1
 176 559.333333333 169.666666667 560 161 560 c 0
 159 558.666666667 157.666666667 555.666666667 157 551 c 1
 129 548 l 1
 129 544 l 1
 131 542.666666667 133.666666667 542 137 542 c 0
 138.333333333 542 140.166666667 542.166666667 142.5 542.5 c 128
 144.833333333 542.833333333 146.666666667 543 148 543 c 0
 151.333333333 543 153.666666667 542.333333333 155 541 c 0
 155 537 154.333333333 533.333333333 153 530 c 1
 151 532 l 1
 142.333333333 532 130.333333333 533 115 535 c 1
 114 534 l 1
 115 533 l 1
 117.666666667 533 127.333333333 530 144 524 c 1
 134 522 129 519.333333333 129 516 c 1
 129.666666667 515.333333333 130.479166667 515.083333333 131.4375 515.25 c 0
 131.8125 515.083333333 132.333333333 515 133 515 c 2
 133.58 515.3 l 1
 136.526666667 515.1 140.666666667 516 146 518 c 0
 152 517.333333333 155.666666667 514 157 508 c 1
 154.333333333 502.666666667 153 495.666666667 153 487 c 1
 158 483 l 1
 161.333333333 493 163 500 163 504 c 128
 163 508 162 511.333333333 160 514 c 0
 158.666666667 516 158.060606061 518.038567493 158.181818182 520.115702479 c 1
 158.060606061 520.038567493 158 520.166666667 158 520.5 c 128
 158 520.833333333 158.055555556 521.185185185 158.166666667 521.555555556 c 0
 158.055555556 523.185185185 158.333333333 524.666666667 159 526 c 0
 160.333333333 530.666666667 162.333333333 539.333333333 165 552 c 1
 171.666666667 549.333333333 177.666666667 548 183 548 c 128
 188.333333333 548 193.333333333 549 198 551 c 0
 202 555.666666667 203.941176471 560.035178777 203.823529412 564.105536332 c 1
 203.941176471 564.035178777 204 564.166666667 204 564.5 c 128
 204 564.833333333 203.948717949 565.082840237 203.846153846 565.24852071 c 0
 203.948717949 566.41617357 203.666666667 567.666666667 203 569 c 0
 197 575 194 578.333333333 194 579 c 0
 197.333333333 585 203 593.666666667 211 605 c 1
 217.666666667 565.666666667 237.333333333 537 270 519 c 0
 276 517 282 515.333333333 288 514 c 0
 291.333333333 513.333333333 294.125 513.033333333 296.375 513.1 c 0
 296.791666667 513.033333333 297.166666667 513 297.5 513 c 128
 297.833333333 513 297.991666667 513.033333333 297.975 513.1 c 1
 299.991666667 513.033333333 302 513.333333333 304 514 c 0
 306.666666667 514.666666667 310.333333333 515 315 515 c 0
 318 515 318 515 322 515 c 1
 322 493.666666667 320.333333333 462 317 420 c 1
 316.333333333 422.666666667 315.012486993 423.870967742 313.037460978 423.612903226 c 1
 312 424 l 1
 311.995 423.7 l 2
 311.331666667 423.9 310.666666667 423.666666667 310 423 c 0
 308.666666667 422.333333333 307.476851852 422.055555556 306.430555556 422.166666667 c 0
 306.143518519 422.055555556 305.833333333 422 305.5 422 c 128
 305.166666667 422 305.063360882 422.060606061 305.190082645 422.181818182 c 1
 303.730027548 422.060606061 302.666666667 422.666666667 302 424 c 0
 297.333333333 426.666666667 289.166666667 429.333333333 277.5 432 c 128
 265.833333333 434.666666667 227 450.333333333 161 479 c 1
 158 476 l 1
 212.666666667 448.666666667 265.666666667 428.333333333 317 415 c 1
 317 397 316.333333333 381.333333333 315 368 c 128
 313.666666667 354.666666667 310.666666667 323 306 273 c 1
 298.666666667 268.333333333 288 260.666666667 274 250 c 1
 256.666666667 231.333333333 244.833333333 210.333333333 238.5 187 c 128
 232.166666667 163.666666667 226 131 220 89 c 1
 210 89 l 1
 209.333333333 88.3333333333 208.666666667 86.6666666667 208 84 c 0
 210.666666667 81.3333333333 212 77 212 71 c 2
 212 57 l 1
 213.333333333 53 214 48.6666666667 214 44 c 128
 214 39.3333333333 213.666666667 34.3333333333 213 29 c 1
 203 29 192.666666667 27 182 23 c 0
 165.333333333 19 154 13.3333333333 148 6 c 1
 150 0.666666666667 157.333333333 -4 170 -8 c 1
 205.333333333 -4.66666666667 229.333333333 1.66666666667 242 11 c 1
 242.666666667 19.6666666667 243 28.6666666667 243 38 c 0
 243 41.3333333333 242.888888889 44.2962962963 242.666666667 46.8888888889 c 0
 242.888888889 52.2962962963 243.333333333 57.3333333333 244 62 c 0
 244.666666667 64.6666666667 245 68 245 72 c 0
 245 77.3333333333 244.666666667 84.3333333333 244 93 c 1
 242 92.3333333333 239 92 235 92 c 0
 232 92 232 92 228 92 c 1
 235 149 l 2
 237 163 243.333333333 183 254 209 c 0
 254.666666667 213 263 225.666666667 279 247 c 1
 290 254 l 2
 299.333333333 260 306 264.333333333 310 267 c 1
 323.333333333 259 334.666666667 246.333333333 344 229 c 0
 346.666666667 220.333333333 354.833333333 200 368.5 168 c 128
 382.166666667 136 389.333333333 110.333333333 390 91 c 1
 386.666666667 91 382.333333333 89.6666666667 377 87 c 1
 376.333333333 82.3333333333 376 75.8333333333 376 67.5 c 128
 376 59.1666666667 377.333333333 48 380 34 c 0
 379.333333333 31.3333333333 379 27.6666666667 379 23 c 256
 379 18.3333333333 379.333333333 13 380 7 c 0
 381.333333333 5.66666666667 382.666666667 5 384 5 c 2
 385 5 l 1
 390.333333333 10.3333333333 393 13.6666666667 393 15 c 1
 393 15 l 1
 395 15 397.333333333 12.3333333333 400 7 c 1
 419.333333333 9 442.666666667 10.6666666667 470 12 c 1
 488 17 l 1
 505 16 l 1
 505 17 l 2
 505 18.3333333333 504.666666667 19.3333333333 504 20 c 0
 502.666666667 21.3333333333 496.5 24.3333333333 485.5 29 c 128
 474.5 33.6666666667 461.833333333 36 447.5 36 c 128
 433.166666667 36 420.333333333 35.3333333333 409 34 c 1
 409 36 408.888888889 38.2222222222 408.666666667 40.6666666667 c 0
 408.888888889 46.2222222222 409.333333333 53.3333333333 410 62 c 0
 410.666666667 70 411 77.6666666667 411 85 c 0
 411 92 411 92 411 99 c 1
 410 99 l 2
 407.333333333 99 403 97.3333333333 397 94 c 1
 389 136 370 186.666666667 340 246 c 0
 332 258 323.333333333 268 314 276 c 1
 318 329 l 2
 318 330.333333333 320 360.666666667 324 420 c 1
 331.333333333 420.666666667 338.333333333 423.666666667 345 429 c 1
 361.666666667 435 384.666666667 447.333333333 414 466 c 0
 419.333333333 471.333333333 430.666666667 482 448 498 c 128
 465.333333333 514 483.333333333 535.333333333 502 562 c 1
 514.666666667 564 530.666666667 575.666666667 550 597 c 1
 544.666666667 595.666666667 537.5 591.333333333 528.5 584 c 128
 519.5 576.666666667 512.333333333 572.333333333 507 571 c 1
 514.333333333 590.333333333 526.666666667 610.333333333 544 631 c 0
 544 633 543.333333333 635 542 637 c 0
 536 636.333333333 522 615 500 573 c 1
 496 569 l 1
 496 572 496 572 496 575 c 0
 496 583 497.666666667 591 501 599 c 0
 505.666666667 609.666666667 510 620 514 630 c 0
 512.666666667 631.333333333 511.333333333 632 510 632 c 2
 509 632 l 1
 505.666666667 628 498 606 486 566 c 1
 485.333333333 566.666666667 483 567.833333333 479 569.5 c 128
 475 571.166666667 473 573.333333333 473 576 c 0
 468.333333333 580.666666667 465.333333333 583 464 583 c 2
 463 583 l 1
 463 582 463 582 463 581 c 0
 463 578.333333333 465 573.333333333 469 566 c 1
 474.333333333 560.666666667 478.300411523 558.148148148 480.901234568 558.444444444 c 1
 481 558 l 1
 482 558 l 2
 482.666666667 558 483 558.333333333 483 559 c 2
 484.28125 558.625 l 1
 486.09375 558.875 488 558 490 556 c 1
 462.666666667 513.333333333 418.666666667 474.333333333 358 439 c 0
 350.666666667 435.666666667 339.333333333 432 324 428 c 1
 325 432 l 1
 325 440 325 440 325 448 c 0
 325 451.333333333 324.952380952 454.836734694 324.857142857 458.510204082 c 0
 324.952380952 479.503401361 326.666666667 499.666666667 330 519 c 1
 331 520 l 1
 336.333333333 522 341.833333333 523.666666667 347.5 525 c 128
 353.166666667 526.333333333 365.666666667 531.666666667 385 541 c 0
 392.333333333 546.333333333 403 556 417 570 c 1
 435.666666667 598.666666667 445 625.666666667 445 651 c 0
 445 657 444.333333333 663 443 669 c 1
 444 670 l 1
 446.666666667 664.666666667 452.666666667 648 462 620 c 1
 464 621 l 1
 461.333333333 629 458.666666667 641.333333333 456 658 c 1
 460.666666667 648 463.5 639.833333333 464.5 633.5 c 128
 465.5 627.166666667 467.333333333 620.333333333 470 613 c 1
 472 615 l 1
 472 619 l 1
 468.666666667 633 463.5 648.5 456.5 665.5 c 128
 449.5 682.5 445 693 443 697 c 1
 447 691 452 682.666666667 458 672 c 128
 464 661.333333333 471.333333333 642.333333333 480 615 c 1
 478 614.333333333 477 613.333333333 477 612 c 2
 477 611 l 1
 477.666666667 610.333333333 478.666666667 610 480 610 c 256
 481.333333333 610 482.333333333 610.333333333 483 611 c 1
 483 622 l 1
 485.666666667 615.333333333 487 610.666666667 487 608 c 128
 487 605.333333333 486.666666667 603.333333333 486 602 c 1
 487.333333333 602.666666667 489 603 491 603 c 0
 491.666666667 604.333333333 491.916666667 605.770833333 491.75 607.3125 c 0
 491.916666667 607.770833333 492 608.166666667 492 608.5 c 128
 492 608.833333333 491.9 609.313333333 491.7 609.94 c 0
 491.9 613.98 491 618 489 622 c 2
 482 641 l 2
 477.333333333 654.333333333 468 675.333333333 454 704 c 1
 457 707 l 2
 457 708 457 708 457 709 c 0
 457 710.333333333 456.333333333 712.333333333 455 715 c 0
 454.333333333 715 453 714.333333333 451 713 c 0
 450.333333333 713.666666667 449.666666667 714.666666667 449 716 c 0
 447 715.333333333 445.333333333 715 444 715 c 0
 442.666666667 715.666666667 440 716.666666667 436 718 c 0
 433.333333333 718.666666667 431.41 718.966666667 430.23 718.9 c 2
 430 719 l 1
 429.42 718.9 l 2
 428.473333333 718.966666667 427.666666667 718.666666667 427 718 c 0
 423.666666667 719.333333333 421 722 419 726 c 1
 420.333333333 727.333333333 421 728.666666667 421 730 c 2
 421 731 l 1
 420 731 l 2
 418.666666667 731 416.666666667 730.333333333 414 729 c 1
 411.333333333 729.666666667 410.129032258 730.779396462 410.387096774 732.338189386 c 1
 410 733 l 1
 410.3 733.54 l 2
 410.1 733.846666667 410.333333333 734.333333333 411 735 c 0
 411.666666667 737 412 738.333333333 412 739 c 128
 412 740 412 740 412 741 c 2
234 679 m 1
 240 697 253 710.666666667 273 720 c 1
 278 720 l 1
 262.666666667 708.666666667 248 695 234 679 c 1
221 643 m 1
 221.666666667 653 234.333333333 669.333333333 259 692 c 0
 261 694.666666667 265.666666667 698 273 702 c 1
 261 689.333333333 243.666666667 669.666666667 221 643 c 1
218 628 m 1
 218 629 l 2
 218 633 221 637.333333333 227 642 c 1
 218 628 l 1
189 598 m 1
 180 582 l 1
 180 583 l 2
 180 589.666666667 190.333333333 608.666666667 211 640 c 1
 211 632.666666667 203.666666667 618.666666667 189 598 c 1
189 580 m 1
 186 579 l 1
 186.666666667 581 189.333333333 587 194 597 c 1
 209 619 l 1
 209 614 l 1
 204.333333333 608 197.666666667 596.666666667 189 580 c 1
165 694 m 1
 167 698.666666667 177 704.333333333 195 711 c 1
 188.333333333 705.666666667 178.333333333 700 165 694 c 1
191 559 m 2
 185 558 l 1
 185 563.333333333 186.666666667 567.666666667 190 571 c 0
 193.333333333 571 195.666666667 569.666666667 197 567 c 0
 197 566 197 566 197 565 c 0
 197 561.666666667 195 559.666666667 191 559 c 2
238 82 m 1
 236 82 l 1
 236 85 l 1
 236.666666667 84.3333333333 237.333333333 83.3333333333 238 82 c 1
234 24 m 1
 235 26 l 1
 235 24 l 1
 234 24 l 1
226 26 m 1
 226.666666667 29.3333333333 228.333333333 32.3333333333 231 35 c 1
 229 31 227.333333333 28 226 26 c 1
158 608 m 1
 149 608 l 1
 149.666666667 614 151.666666667 618 155 620 c 1
 157 616.666666667 158 613.333333333 158 610 c 0
 158 609 158 609 158 608 c 1
129 410 m 1
 129 408 l 2
 129 407.333333333 130.333333333 406.666666667 133 406 c 1
 158 410 l 2
 161.333333333 410 164.333333333 409 167 407 c 128
 169.666666667 405 171 402.666666667 171 400 c 128
 171 397.333333333 169 394 165 390 c 0
 163 388.666666667 160.054738642 388.01096343 156.164215926 388.032890291 c 1
 156 388 l 2
 155.889434588 388.022108651 142.889434588 390.355441984 117 395 c 1
 111 395 107 393.333333333 105 390 c 0
 99 385.333333333 92.3333333333 383 85 383 c 128
 77.6666666667 383 71 384.166666667 65 386.5 c 128
 59 388.833333333 56.0588235294 391.216262976 56.1764705882 393.648788927 c 1
 56 394 l 1
 56.1538461538 394.24260355 l 2
 56.0512820513 394.747534517 56.3333333333 395.666666667 57 397 c 0
 65 408.333333333 80 416.333333333 102 421 c 1
 101 423 l 1
 79 432 l 1
 73 430 l 1
 71 430.666666667 69.3333333333 433.333333333 68 438 c 1
 65.5 438 l 2
 64.5 438 63.3333333333 437 62 435 c 1
 62 426 l 1
 66 424 l 1
 64 418 54.3333333333 414.666666667 37 414 c 0
 31.6666666667 414 25 416.666666667 17 422 c 1
 19 432.666666667 28 440.666666667 44 446 c 1
 46 446 l 2
 49.3333333333 446 56.3333333333 445.333333333 67 444 c 1
 68 444 l 1
 69.3333333333 452.666666667 72.6666666667 466.333333333 78 485 c 0
 78.6666666667 485.666666667 79.5 486 80.5 486 c 128
 81.5 486 82.6666666667 485 84 483 c 0
 82 479 80 473 78 465 c 1
 86.6666666667 465 91 463 91 459 c 0
 90.3333333333 454.333333333 88 452.666666667 84 454 c 0
 80.8609369763 456.666666667 78.1942703097 458 76 458 c 1
 74.6666666667 454.666666667 74 452.041666667 74 450.125 c 2
 74 445 l 2
 74 443.666666667 74.3333333333 442.333333333 75 441 c 1
 86.3333333333 437 103.333333333 429.333333333 126 418 c 1
 130 422 l 1
 91 437 l 1
 91 438 l 2
 91 439.333333333 92 441 94 443 c 0
 93.3333333333 445.666666667 93 448.833333333 93 452.5 c 128
 93 456.166666667 94.3333333333 460.666666667 97 466 c 1
 91.6666666667 466.666666667 87.6666666667 468.666666667 85 472 c 0
 85 474.666666667 85.3333333333 476.333333333 86 477 c 0
 90 475 93.6666666667 474 97 474 c 128
 100.333333333 474 102 475.666666667 102 479 c 2
 102 482 l 1
 93 489 l 1
 95 488.333333333 97.8333333333 488 101.5 488 c 128
 105.166666667 488 110 489 116 491 c 0
 116.666666667 490.333333333 117.666666667 489.666666667 119 489 c 1
 119 488 l 1
 114 482 l 1
 116.666666667 479.333333333 122 475 130 469 c 1
 130 470 l 2
 130 473.333333333 127.666666667 479 123 487 c 1
 126 487 l 1
 133 483 l 1
 134.333333333 484.333333333 135.294181286 484.971700923 135.882543858 484.91510277 c 2
 136.024940243 484.913884273 l 0
 136.674980081 484.971294758 137 483.166666667 137 479.5 c 128
 137 475.833333333 133.333333333 466 126 450 c 1
 128.666666667 450 133 449 139 447 c 1
 140.333333333 450.333333333 141.666666667 459.333333333 143 474 c 0
 144.333333333 474.666666667 145.5 475 146.5 475 c 128
 147.5 475 148 474.666666667 148 474 c 0
 148 454.666666667 142 433.666666667 130 411 c 1
 129 410 l 1
162 401 m 0
 162 400 162 400 162 399 c 128
 162 398.333333333 162.092105263 397.885791782 162.276315789 397.657375346 c 0
 162.092105263 395.219125115 160.666666667 394 158 394 c 0
 157.333333333 394 156.666666667 393.666666667 156 393 c 0
 152.666666667 393.666666667 148.666666667 394.666666667 144 396 c 0
 138.666666667 397.333333333 134.666666667 398 132 398 c 1
 136 400.666666667 141.680194242 401.870967742 149.040582726 401.612903226 c 0
 149.680194242 401.870967742 150.5 402 151.5 402 c 128
 152.5 402 153.426666667 401.9 154.28 401.7 c 0
 156.76 401.9 159.333333333 401.666666667 162 401 c 0
164 3 m 1
 167.333333333 4.33333333333 169.814814815 4.88888888889 171.444444444 4.66666666667 c 1
 172 5 l 1
 174 4 l 2
 176 4 176 4 178 4 c 128
 180 4 180 4 184 4 c 0
 186 4 188 4.33333333333 190 5 c 0
 190.666666667 5 191.208333333 4.91666666667 191.625 4.75 c 0
 193.208333333 4.91666666667 194.666666667 4.66666666667 196 4 c 1
 186 2.66666666667 178.5 2 173.5 2 c 128
 168.5 2 165.333333333 2.33333333333 164 3 c 1
133 580 m 1
 135.666666667 578 137 576.333333333 137 575 c 128
 137 573.666666667 136 572.666666667 134 572 c 0
 132 572 132 572 131 572 c 0
 128.333333333 572 126.666666667 573.333333333 126 576 c 1
 133 580 l 1
132 429 m 1
 134 435 135.333333333 438.666666667 136 440 c 1
 132 442 132 442 128 444 c 0
 127.229437229 444.192640693 125.229437229 444.525974026 122 445 c 1
 114 442 l 2
 110 440 107 439 105 439 c 1
 119 434.333333333 128 431 132 429 c 1
127 506 m 1
 123 506 l 1
 118.333333333 509.333333333 111.666666667 514.666666667 103 522 c 0
 103.666666667 524 104.5 525 105.5 525 c 128
 106.5 525 110.666666667 523 118 519 c 128
 125.333333333 515 129 511.333333333 129 508 c 1
 127 506 l 1
119 579 m 1
 111.666666667 586.333333333 104.333333333 590 97 590 c 256
 89.6666666667 590 86 587.333333333 86 582 c 0
 86 580 87 578 89 576 c 1
 85 576 l 1
 81.6666666667 574.666666667 78.3333333333 571.333333333 75 566 c 1
 81.6666666667 559.333333333 92 551.666666667 106 543 c 0
 108.666666667 542.333333333 110 541 110 539 c 0
 110 537.666666667 109.666666667 536.333333333 109 535 c 0
 106.333333333 535 99.3333333333 538.666666667 88 546 c 0
 71.3333333333 561.333333333 63 573 63 581 c 0
 63 589.666666667 74.6666666667 595 98 597 c 1
 106 593.666666667 111.666666667 591.333333333 115 590 c 128
 118.333333333 588.666666667 120.333333333 585.666666667 121 581 c 1
 119 579 l 1
119 454 m 1
 124 458 l 1
 120 466 117 471.333333333 115 474 c 0
 113.666666667 475.333333333 112.166666667 476.333333333 110.5 477 c 129
 108.833333333 477.666666667 108 477.333333333 108 476 c 1
 114.666666667 469.333333333 118.333333333 462 119 454 c 1
116 495 m 1
 110.666666667 496.333333333 104.666666667 499.666666667 98 505 c 0
 98.6666666667 507 100 508.333333333 102 509 c 0
 102.666666667 508.333333333 106 506.666666667 112 504 c 0
 116.666666667 502 119 499.666666667 119 497 c 0
 119 496 119 496 119 495 c 1
 116 495 l 1
115 398 m 0
 113.666666667 399.333333333 113 400.333333333 113 401 c 0
 113.666666667 401.666666667 115 402 117 402 c 0
 117.666666667 401.333333333 119 401 121 401 c 0
 122 401 122 401 124 401 c 0
 124.666666667 400.333333333 125.333333333 399.333333333 126 398 c 1
 123.333333333 398.666666667 121.333333333 399 120 399 c 0
 118 399 116.333333333 398.666666667 115 398 c 0
116 405 m 1
 114 405 111.666666667 403.166666667 109 399.5 c 128
 106.333333333 395.833333333 102 393 96 391 c 1
 96 395.666666667 95.3333333333 402.333333333 94 411 c 1
 98.6666666667 411 104.666666667 412.666666667 112 416 c 0
 114 414.666666667 117.333333333 413.666666667 122 413 c 1
 116 405 l 1
104 445 m 0
 107.333333333 445 110.666666667 446.333333333 114 449 c 1
 111 451 l 2
 111 452 111 452 111 454 c 0
 111 460.666666667 108.666666667 465.333333333 104 468 c 1
 100 460 98 454.333333333 98 451 c 0
 98 447 100 445 104 445 c 0
80 498 m 258
 83 508 l 1
 83 508 l 1
 84.3333333333 508 87 506 91 502 c 1
 94 502 l 1
 94 499 l 1
 80.6666666667 489.666666667 69.6666666667 485 61 485 c 0
 54.3333333333 485 49 488 45 494 c 1
 46.3333333333 504 53 510.333333333 65 513 c 1
 66 513 l 1
 69.3333333333 513.666666667 74.6666666667 514.666666667 82 516 c 0
 86 516.666666667 89.6666666667 517.333333333 93 518 c 1
 93.34 517.9 l 2
 95.1133333333 517.966666667 97 517.666666667 99 517 c 0
 99 515.666666667 98.3333333333 514 97 512 c 0
 90.3333333333 512 81 510.5 69 507.5 c 128
 57 504.5 51 500.666666667 51 496 c 0
 51 494.666666667 53.3333333333 493.333333333 58 492 c 0
 60.6666666667 490 63.6666666667 489 67 489 c 128
 70.3333333333 489 75 491.333333333 81 496 c 1
 80.3333333333 496.666666667 80 497.333333333 80 498 c 258
81 389 m 2
 77 389 71 391 63 395 c 1
 65.6666666667 399 73.6666666667 404 87 410 c 1
 88.3333333333 408.666666667 88.9393939394 406.044077135 88.8181818182 402.132231405 c 0
 88.9393939394 402.044077135 89 401.666666667 89 401 c 128
 89 400.333333333 88.9444444444 399.740740741 88.8333333333 399.222222222 c 0
 88.9444444444 396.407407407 88.6666666667 393.333333333 88 390 c 1
 81 389 l 2
53 421 m 1
 51 421 48.6666666667 420.333333333 46 419 c 1
 46.6666666667 420.333333333 46.9444444444 421.555555556 46.8333333333 422.666666667 c 0
 46.9444444444 422.888888889 47 423.166666667 47 423.5 c 128
 47 423.833333333 46.9393939394 424.044077135 46.8181818182 424.132231405 c 0
 46.9393939394 426.044077135 46.3333333333 428.666666667 45 432 c 1
 43.6666666667 430 41 427 37 423 c 1
 38 420 l 1
 34.6666666667 420 30.3333333333 421.333333333 25 424 c 1
 31 434 38.6666666667 439.333333333 48 440 c 0
 50 440 52.6666666667 439 56 437 c 0
 56 436 56 436 56 434 c 0
 56 430.666666667 55 426.333333333 53 421 c 1
322 739 m 1
 320 716 l 1
 320.666666667 715.333333333 321.5 715 322.5 715 c 128
 323.5 715 324.333333333 715.333333333 325 716 c 0
 325 722 327 730 331 740 c 1
 331 741 l 1
 337 742 l 1
 336 732 l 258
 336 730.666666667 337.666666667 730 341 730 c 1
 343 732.666666667 344 736.333333333 344 741 c 1
 348 741 l 1
 343 727 l 1
 343 725 343.333333333 722.666666667 344 720 c 1
 347.333333333 721.333333333 349.5 724 350.5 728 c 128
 351.5 732 352.666666667 734.666666667 354 736 c 0
 354 737.333333333 353.666666667 738.666666667 353 740 c 1
 359 741 l 1
 357.666666667 739 357 736.666666667 357 734 c 128
 357 731.333333333 358.333333333 728.333333333 361 725 c 1
 363.666666667 733.666666667 365 738.666666667 365 740 c 1
 366 740 366 740 367 740 c 0
 375.666666667 740 381.666666667 737 385 731 c 1
 386.333333333 731.666666667 387.333333333 732 388 732 c 0
 389.333333333 732 390.666666667 731.666666667 392 731 c 1
 390.666666667 730.333333333 389 729 387 727 c 0
 387 725.666666667 388 724 390 722 c 0
 391.333333333 721.333333333 392.333333333 721 393 721 c 128
 393.666666667 721 394.333333333 721.333333333 395 722 c 1
 394 723 l 1
 394 725.666666667 393.666666667 728 393 730 c 1
 395 730 401.666666667 726 413 718 c 1
 409.666666667 716.666666667 408 715 408 713 c 1
 405 716 l 1
 401 711 l 1
 401 716.333333333 400 720.333333333 398 723 c 1
 397.333333333 722.333333333 396 718 394 710 c 0
 394.666666667 708 395.333333333 707 396 707 c 128
 396.666666667 707 398.333333333 707.666666667 401 709 c 1
 401 708 401 708 401 707 c 0
 401 705.666666667 400 704.333333333 398 703 c 2
 391 700 l 1
 389.666666667 700.666666667 389 702 389 704 c 0
 389 704.666666667 389.166666667 705.666666667 389.5 707 c 128
 389.833333333 708.333333333 390 709.333333333 390 710 c 0
 390 711.333333333 389.333333333 712.333333333 388 713 c 1
 387.333333333 710.333333333 384.666666667 707 380 703 c 1
 382.666666667 700.333333333 383.950617284 698.500685871 383.851851852 697.502057613 c 2
 384 697 l 1
 384 696 l 1
 383.333333333 695.333333333 383 694.333333333 383 693 c 0
 383 692 383 692 383 690 c 1
 387 690 389.333333333 691.666666667 390 695 c 1
 391 695 l 2
 393 695 397 698 403 704 c 0
 405 707.333333333 406.666666667 709 408 709 c 2
 409 709 l 1
 421 704 l 1
 419.666666667 702.666666667 418.833333333 700.833333333 418.5 698.5 c 128
 418.166666667 696.166666667 416.333333333 694 413 692 c 1
 414 690 l 1
 418 690 418 690 420 690 c 0
 425.333333333 690 428.666666667 689.333333333 430 688 c 0
 435.333333333 676.666666667 438 667 438 659 c 128
 438 651 437.166666667 644 435.5 638 c 128
 433.833333333 632 431.333333333 621.333333333 428 606 c 1
 414.666666667 576.666666667 400.333333333 557.666666667 385 549 c 0
 382.333333333 545 376 541.333333333 366 538 c 2
 342 530 l 1
 332.666666667 526 324 524 316 524 c 0
 315 524 315 524 314 524 c 0
 306 524 292.333333333 526 273 530 c 1
 247.666666667 542 229.666666667 566.333333333 219 603 c 1
 218 620 l 1
 221.333333333 626.666666667 233 642.333333333 253 667 c 0
 259 674.333333333 272 685 292 699 c 0
 292 701.666666667 292.333333333 705.666666667 293 711 c 1
 291 712.333333333 289.666666667 713 289 713 c 2
 288 713 l 1
 286.666666667 715.666666667 284.666666667 719.333333333 282 724 c 1
 283.333333333 722.666666667 284.666666667 722 286 722 c 2
 288 722 l 1
 288 724 288.666666667 726 290 728 c 1
 291.333333333 722.666666667 295 716.666666667 301 710 c 1
 301.666666667 712 302 714.166666667 302 716.5 c 128
 302 718.833333333 300.666666667 722 298 726 c 1
 298 732 l 1
 299 732 299 732 300 732 c 0
 303.333333333 732 307.333333333 734 312 738 c 1
 314 738 l 1
 316 738 l 1
 314 734 313 730.333333333 313 727 c 0
 313.666666667 726.333333333 314.333333333 726 315 726 c 128
 315.666666667 726 316.666666667 726.333333333 318 727 c 0
 318 730.333333333 319.333333333 734.333333333 322 739 c 1
324 553 m 0
 322.666666667 551 320 550 316 550 c 2
 305 550 l 2
 296.333333333 550 283.666666667 550.666666667 267 552 c 1
 266 555 266 555 264 561 c 1
 266 561.666666667 267 563.333333333 267 566 c 1
 278.333333333 566 296 564.666666667 320 562 c 1
 319 565 l 1
 311.666666667 571.666666667 298.666666667 577.333333333 280 582 c 0
 278.666666667 580.666666667 278 578 278 574 c 1
 274 570 l 1
 274 573.333333333 272.666666667 577.333333333 270 582 c 1
 268 580 265.333333333 579 262 579 c 256
 258 579 253 581 247 585 c 0
 247 586 247 586 247 587 c 0
 247 589.666666667 248.666666667 592.666666667 252 596 c 1
 256.666666667 596.666666667 263.666666667 598 273 600 c 1
 294 596 l 1
 302 593.333333333 314 584 330 568 c 0
 330 566.666666667 328.666666667 564.666666667 326 562 c 0
 324 560 323.1 558.125 323.3 556.375 c 0
 323.1 556.125 323 555.833333333 323 555.5 c 128
 323 555.166666667 323.083333333 554.96875 323.25 554.90625 c 0
 323.083333333 554.302083333 323.333333333 553.666666667 324 553 c 0
296 632 m 1
 290 634 287 635.666666667 287 637 c 2
 287 638 l 1
 292.333333333 644 296.333333333 647 299 647 c 2
 300 647 l 1
 302 645 303 642.666666667 303 640 c 128
 303 637.333333333 300.666666667 634.666666667 296 632 c 1
278 632 m 1
 277 632 l 2
 273.666666667 632 271 634 269 638 c 0
 269 640.666666667 270.666666667 644 274 648 c 0
 276 647.333333333 279 644.666666667 283 640 c 0
 282.333333333 638 280.666666667 635.333333333 278 632 c 1
280 558 m 1
 282.666666667 558.666666667 286 559 290 559 c 128
 294 559 298 558.666666667 302 558 c 1
 296 558 296 558 290 558 c 128
 284 558 284 558 280 558 c 1
408 600 m 1
 406.666666667 600.666666667 404.666666667 601.333333333 402 602 c 1
 405 605 l 1
 384 663 l 2
 378 680.333333333 368.333333333 698.333333333 355 717 c 0
 355 719 355.666666667 720.666666667 357 722 c 1
 359.666666667 718 364 713.333333333 370 708 c 1
 372.666666667 712 376 718.333333333 380 727 c 1
 381 728 l 2
 381.666666667 728 382.333333333 727.666666667 383 727 c 0
 383 721.666666667 381 717.666666667 377 715 c 1
 377 711.666666667 375.666666667 707 373 701 c 1
 409 607 l 2
 409 606 409 606 409 605 c 0
 409 603.666666667 408.666666667 602 408 600 c 1
395 606 m 1
 394.333333333 608.666666667 393 611.666666667 391 615 c 128
 389 618.333333333 386.833333333 624 384.5 632 c 128
 382.166666667 640 377.5 651 370.5 665 c 128
 363.5 679 358.333333333 689.666666667 355 697 c 0
 351.666666667 700.333333333 347.333333333 706 342 714 c 0
 343.333333333 715.333333333 344.666666667 716 346 716 c 0
 351.333333333 712.666666667 359 700.5 369 679.5 c 128
 379 658.5 388 634.333333333 396 607 c 1
 395 606 l 1
378 602 m 1
 374 614.666666667 368 634 360 660 c 1
 349.333333333 682 339.333333333 698.333333333 330 709 c 1
 332 722 l 2
 332 722.666666667 333 723 335 723 c 1
 334.333333333 721.666666667 334 720 334 718 c 128
 334 716 334.333333333 713.666666667 335 711 c 1
 342.333333333 702.333333333 348 692.666666667 352 682 c 1
 366 656 l 1
 366 653.333333333 369.666666667 645.333333333 377 632 c 0
 381 624.666666667 383 618.666666667 383 614 c 128
 383 609.333333333 381.333333333 605.333333333 378 602 c 1
422 676 m 1
 422 681 l 1
 423 681 l 2
 424.333333333 681 425.666666667 680.666666667 427 680 c 0
 426.333333333 677.333333333 425 676 423 676 c 2
 422 676 l 1
EndSplineSet
Validated: 5
EndChar

StartChar: A
Encoding: 65 65 36
Width: 541
Flags: HWO
LayerCount: 2
Back
Fore
SplineSet
498 -18 m 0
 460 -18 436.666666667 18.3333333333 428 91 c 1
 408 57.6666666667 381.333333333 31.1666666667 348 11.5 c 0
 314.666666667 -8.16666666667 278.666666667 -18 240 -18 c 0
 178.666666667 -18 127.166666667 3 85.5 45 c 0
 43.8333333333 87 23 138.666666667 23 200 c 0
 23 260.666666667 44 312 86 354 c 0
 128 396 179.333333333 417 240 417 c 0
 283.333333333 417 324.333333333 404 363 378 c 0
 368.333333333 374.666666667 371 370 371 364 c 0
 371 352 365 346 353 346 c 0
 349 346 345.666666667 347 343 349 c 0
 311.666666667 371 277.333333333 382 240 382 c 0
 189.333333333 382 146.333333333 364.333333333 111 329 c 0
 75.6666666667 293.666666667 58 250.666666667 58 200 c 256
 58 149.333333333 75.6666666667 106.333333333 111 71 c 0
 146.333333333 35.6666666667 189.333333333 18 240 18 c 256
 290.666666667 18 333.666666667 35.6666666667 369 71 c 0
 404.333333333 106.333333333 422 149.333333333 422 200 c 1
 457 200 l 1
 460.333333333 78.6666666667 474 18 498 18 c 0
 510 18 516 12 516 0 c 256
 516 -12 510 -18 498 -18 c 0
412 457 m 2
 412 447 l 2
 412 414.333333333 418.333333333 393 431 383 c 0
 444.333333333 372.333333333 470 362.666666667 508 354 c 1
 300 158 l 2
 296.666666667 154.666666667 292.666666667 153 288 153 c 0
 276 153 270 159 270 171 c 0
 270 175.666666667 272 180 276 184 c 2
 439 337 l 1
 397.666666667 355.666666667 377 392.333333333 377 447 c 0
 377 457 l 2
 377 467.666666667 382.833333333 473 394.5 473 c 0
 406.166666667 473 412 467.666666667 412 457 c 2
EndSplineSet
EndChar

StartChar: B
Encoding: 66 66 37
Width: 583
Flags: HW
LayerCount: 2
Back
Fore
SplineSet
209 420 m 0
 209 432 214.666666667 438 226 438 c 0
 230 438 233.333333333 437 236 435 c 0
 268 413 302.666666667 402 340 402 c 0
 390.666666667 402 433.666666667 419.666666667 469 455 c 128
 504.333333333 490.333333333 522 533.333333333 522 584 c 256
 522 634.666666667 504.333333333 677.666666667 469 713 c 128
 433.666666667 748.333333333 390.666666667 766 340 766 c 256
 289.333333333 766 246.333333333 748.333333333 211 713 c 128
 175.666666667 677.666666667 158 634.666666667 158 584 c 1
 123 584 l 1
 119.666666667 705.333333333 105.666666667 766 81 766 c 0
 69.6666666667 766 64 772 64 784 c 256
 64 796 69.6666666667 802 81 802 c 0
 119.666666667 802 143.333333333 765.666666667 152 693 c 1
 172 726.333333333 198.666666667 752.833333333 232 772.5 c 128
 265.333333333 792.166666667 301.333333333 802 340 802 c 0
 401.333333333 802 452.833333333 781 494.5 739 c 128
 536.166666667 697 557 645.333333333 557 584 c 0
 557 524.666666667 536 473.666666667 494 431 c 0
 474.666666667 411 452 395.666666667 426 385 c 1
 452 373.666666667 474.666666667 358 494 338 c 0
 536 295.333333333 557 244.333333333 557 185 c 0
 557 123.666666667 536.166666667 72 494.5 30 c 128
 452.833333333 -12 401.333333333 -33 340 -33 c 0
 236.666666667 -33 162.333333333 10 117 96 c 1
 107 10 83.3333333333 -33 46 -33 c 0
 34.6666666667 -33 29 -27 29 -15 c 256
 29 -3 34.6666666667 3 46 3 c 0
 74 3 88 67 88 195 c 2
 88 448 l 1
 279 626 l 2
 282.333333333 629.333333333 286.333333333 631 291 631 c 0
 303 631 309 625 309 613 c 0
 309 608.333333333 307 604 303 600 c 2
 125 432 l 1
 125 205 l 2
 125 153 142.333333333 110 177 76 c 0
 195.666666667 58 221.333333333 41.3333333333 254 26 c 128
 286.666666667 10.6666666667 315.333333333 3 340 3 c 0
 390.666666667 3 433.666666667 20.6666666667 469 56 c 128
 504.333333333 91.3333333333 522 134.333333333 522 185 c 256
 522 235.666666667 504.333333333 278.666666667 469 314 c 128
 433.666666667 349.333333333 390.666666667 367 340 367 c 0
 302.666666667 367 268 356 236 334 c 0
 233.333333333 332 230 331 226 331 c 0
 214.666666667 331 209 337 209 349 c 0
 209 355 211.333333333 359.666666667 216 363 c 0
 228 371.666666667 241.333333333 379 256 385 c 1
 224.666666667 399 209 410.666666667 209 420 c 0
EndSplineSet
Validated: 1
EndChar

StartChar: C
Encoding: 67 67 38
Width: 419
Flags: HW
LayerCount: 2
Back
Fore
SplineSet
236 382 m 0
 185.333333333 382 142.333333333 364.333333333 107 329 c 128
 71.6666666667 293.666666667 54 250.666666667 54 200 c 256
 54 149.333333333 71.6666666667 106.333333333 107 71 c 128
 142.333333333 35.6666666667 185.333333333 18 236 18 c 0
 300.666666667 18 351.333333333 45 388 99 c 0
 391.333333333 104.333333333 396 107 402 107 c 0
 414 107 420 101 420 89 c 0
 420 85.6666666667 419 82.6666666667 417 80 c 0
 373.666666667 14.6666666667 313.333333333 -18 236 -18 c 0
 174.666666667 -18 123.166666667 3 81.5 45 c 128
 39.8333333333 87 19 138.666666667 19 200 c 0
 19 260.666666667 40 312 82 354 c 128
 124 396 175.333333333 417 236 417 c 0
 291.333333333 417 335.333333333 402.333333333 368 373 c 0
 375.333333333 366.333333333 377.333333333 359.333333333 374 352 c 2
 319 269 l 2
 315.666666667 263.666666667 311.333333333 261 306 261 c 0
 293.333333333 261 287 267 287 279 c 0
 287 282.333333333 288.333333333 285.666666667 291 289 c 2
 335 356 l 1
 311.666666667 373.333333333 278.666666667 382 236 382 c 0
EndSplineSet
Validated: 1
EndChar

StartChar: D
Encoding: 68 68 39
Width: 542
Flags: HW
LayerCount: 2
Back
Fore
SplineSet
484 -18 m 0
 446 -18 422.666666667 18.3333333333 414 91 c 1
 394 57.6666666667 367.333333333 31.1666666667 334 11.5 c 128
 300.666666667 -8.16666666667 264.666666667 -18 226 -18 c 0
 164.666666667 -18 113.166666667 3 71.5 45 c 128
 29.8333333333 87 9 138.666666667 9 200 c 0
 9 260.666666667 30 312 72 354 c 128
 114 396 165.333333333 417 226 417 c 0
 271.333333333 417 312.333333333 404 349 378 c 0
 354.333333333 374 357 369.333333333 357 364 c 0
 357 352 351.333333333 346 340 346 c 0
 335.333333333 346 331.666666667 347 329 349 c 0
 297.666666667 371 263.333333333 382 226 382 c 0
 175.333333333 382 132.333333333 364.333333333 97 329 c 128
 61.6666666667 293.666666667 44 250.666666667 44 200 c 256
 44 149.333333333 61.6666666667 106.333333333 97 71 c 128
 132.333333333 35.6666666667 175.333333333 18 226 18 c 256
 276.666666667 18 319.666666667 35.6666666667 355 71 c 128
 390.333333333 106.333333333 408 149.333333333 408 200 c 1
 443 200 l 1
 446.333333333 78.6666666667 460 18 484 18 c 0
 496 18 502 12 502 0 c 256
 502 -12 496 -18 484 -18 c 0
262 184 m 2
 441 352 l 1
 441 832 l 1
 461 806 472 792 474 790 c 0
 485.333333333 778.666666667 500.333333333 771.333333333 519 768 c 0
 523.666666667 767.333333333 529.333333333 768 536 770 c 0
 538.666666667 770.666666667 540.666666667 771 542 771 c 0
 550.666666667 770.333333333 555.666666667 765.666666667 557 757 c 0
 557.666666667 746.333333333 553 739.333333333 543 736 c 0
 534.333333333 734 524.592286501 733.03030303 513.776859504 733.090909091 c 0
 498.592286501 733.03030303 486 736 476 742 c 1
 476 336 l 1
 286 158 l 2
 282.666666667 154.666666667 278.666666667 153 274 153 c 0
 262.666666667 153 257 159 257 171 c 0
 257 176.333333333 258.666666667 180.666666667 262 184 c 2
EndSplineSet
Validated: 33
EndChar

StartChar: E
Encoding: 69 69 40
Width: 433
Flags: HW
LayerCount: 2
Back
Fore
SplineSet
420 80 m 0
 376.666666667 14.6666666667 316.333333333 -18 239 -18 c 0
 177.666666667 -18 126.166666667 3 84.5 45 c 128
 42.8333333333 87 22 138.666666667 22 200 c 0
 22 260.666666667 43 312 85 354 c 128
 127 396 178.333333333 417 239 417 c 0
 269.666666667 417 295 412.666666667 315 404 c 0
 333 396 354 381.333333333 378 360 c 1
 201 142 l 1
 202.333333333 130.666666667 210.666666667 121 226 113 c 0
 238.666666667 106.333333333 251.666666667 103 265 103 c 0
 269 103 276 104.666666667 286 108 c 128
 296 111.333333333 303.333333333 113 308 113 c 0
 317.333333333 113 322 107 322 95 c 0
 322 77.6666666667 303 69 265 69 c 0
 237.666666667 69 214.333333333 76.3333333333 195 91 c 0
 173 107 163.666666667 128.333333333 167 155 c 1
 329 355 l 1
 305 373 275 382 239 382 c 0
 188.333333333 382 145.333333333 364.333333333 110 329 c 128
 74.6666666667 293.666666667 57 250.666666667 57 200 c 256
 57 149.333333333 74.6666666667 106.333333333 110 71 c 128
 145.333333333 35.6666666667 188.333333333 18 239 18 c 0
 304.333333333 18 355 45 391 99 c 0
 395 105 399.666666667 108 405 108 c 0
 417 108 423 102 423 90 c 0
 423 86.6666666667 422 83.3333333333 420 80 c 0
EndSplineSet
Validated: 33
EndChar

StartChar: F
Encoding: 70 70 41
Width: 417
Flags: HW
LayerCount: 2
Back
Fore
SplineSet
160 479 m 0
 102 511 73 559.666666667 73 625 c 0
 73 672.333333333 89.1666666667 712 121.5 744 c 128
 153.833333333 776 193.666666667 792 241 792 c 0
 285 792 323.333333333 777.166666667 356 747.5 c 128
 388.666666667 717.833333333 405 681 405 637 c 0
 405 619 402 601 396 583 c 1
 439 551 l 2
 444.333333333 547 447 542 447 536 c 0
 447 524.666666667 441.666666667 519 431 519 c 0
 426.333333333 519 422.333333333 520.333333333 419 523 c 2
 352 572 l 1
 362.666666667 593.333333333 368 614.666666667 368 636 c 0
 368 670.666666667 355 699.666666667 329 723 c 128
 303 746.333333333 272.333333333 758 237 758 c 0
 187.666666667 758 150.333333333 735 125 689 c 0
 114.333333333 669.666666667 109 648.666666667 109 626 c 0
 109 577.333333333 129 540 169 514 c 1
 169 638 l 2
 169 649.333333333 175 655 187 655 c 256
 199 655 205 649.333333333 205 638 c 2
 205 338 l 1
 311 338 l 2
 322.333333333 338 328 332.333333333 328 321 c 0
 328 309 322.333333333 303 311 303 c 2
 205 303 l 1
 205 -5 l 2
 205 -16.3333333333 199 -22 187 -22 c 256
 175 -22 169 -16.3333333333 169 -5 c 2
 169 303 l 1
 88 303 l 1
 93.3333333333 289.666666667 96 276.333333333 96 263 c 0
 96 235 80.3333333333 206.333333333 49 177 c 0
 45.6666666667 173.666666667 41.6666666667 172 37 172 c 0
 25 172 19 178 19 190 c 0
 19 194 21 198 25 202 c 0
 49 224.666666667 61 245.333333333 61 264 c 0
 61 277.333333333 49.3333333333 302 26 338 c 1
 169 338 l 1
 169 475 l 2
 167.666666667 475 164.666666667 476.333333333 160 479 c 0
EndSplineSet
Validated: 1
EndChar

StartChar: G
Encoding: 71 71 42
Width: 623
Flags: HW
LayerCount: 2
Back
Fore
SplineSet
335 -21 m 1
 370.333333333 1 409 12 451 12 c 0
 523 12 580.666666667 -16.6666666667 624 -74 c 0
 653.333333333 -112.666666667 668 -156 668 -204 c 0
 668 -276.666666667 639 -334.666666667 581 -378 c 0
 541.666666667 -407.333333333 498.666666667 -422 452 -422 c 0
 393.333333333 -422 342.833333333 -402 300.5 -362 c 128
 258.166666667 -322 236 -272.666666667 234 -214 c 0
 233.333333333 -201.333333333 239 -195 251 -195 c 0
 262.333333333 -195 268.333333333 -200.666666667 269 -212 c 0
 271 -261.333333333 289.666666667 -302.833333333 325 -336.5 c 128
 360.333333333 -370.166666667 402.666666667 -387 452 -387 c 0
 491.333333333 -387 527.333333333 -374.666666667 560 -350 c 0
 608.666666667 -313.333333333 633 -265 633 -205 c 0
 633 -164.333333333 620.666666667 -127.666666667 596 -95 c 0
 560 -47 514 -23 458 -23 c 0
 412 -23 368 -38.6666666667 326 -70 c 1
 283 -5 l 1
 261 -13.6666666667 236 -18 208 -18 c 0
 146.666666667 -18 95.1666666667 3 53.5 45 c 128
 11.8333333333 87 -9 138.666666667 -9 200 c 0
 -9 260.666666667 12 312 54 354 c 128
 96 396 147.333333333 417 208 417 c 0
 248 417 285 406.666666667 319 386 c 1
 377 443 l 2
 381 447 385.333333333 449 390 449 c 0
 401.333333333 449 407 442.666666667 407 430 c 0
 407 425.333333333 405.333333333 421 402 417 c 2
 323 341 l 1
 284.333333333 368.333333333 246 382 208 382 c 0
 157.333333333 382 114.333333333 364.333333333 79 329 c 128
 43.6666666667 293.666666667 26 250.666666667 26 200 c 256
 26 149.333333333 43.6666666667 106.333333333 79 71 c 128
 114.333333333 35.6666666667 157.333333333 18 208 18 c 0
 227.333333333 18 245.666666667 20.6666666667 263 26 c 1
 176 155 l 2
 174 157.666666667 173 161 173 165 c 0
 173 177.666666667 179 184 191 184 c 0
 196.333333333 184 201 181 205 175 c 2
 295 39 l 1
 358.333333333 74.3333333333 390 128 390 200 c 0
 390 211.333333333 395.666666667 217 407 217 c 0
 419 217 425 211.333333333 425 200 c 0
 425 160.666666667 415.166666667 124.166666667 395.5 90.5 c 128
 375.833333333 56.8333333333 349 30.3333333333 315 11 c 1
 335 -21 l 1
EndSplineSet
Validated: 1
EndChar

StartChar: H
Encoding: 72 72 43
Width: 458
Flags: HW
LayerCount: 2
Back
Fore
SplineSet
117 133 m 2
 54 238 l 1
 54 12 l 2
 54 0.666666666667 48 -5 36 -5 c 0
 24.6666666667 -5 19 0.666666666667 19 12 c 2
 19 759 l 2
 19 770.333333333 24.6666666667 776 36 776 c 0
 48 776 54 770.333333333 54 759 c 2
 54 288 l 1
 97.3333333333 328 147 348 203 348 c 0
 263.666666667 348 315 327 357 285 c 128
 399 243 420 191.666666667 420 131 c 0
 420 46.3333333333 390 -15.3333333333 330 -54 c 1
 351 -88 l 2
 353.666666667 -91.3333333333 355 -95 355 -99 c 0
 355 -111.666666667 349.333333333 -118 338 -118 c 0
 332 -118 326.333333333 -114 321 -106 c 2
 280 -41 l 1
 350 -6.33333333333 385 51 385 131 c 0
 385 181 367.333333333 223.833333333 332 259.5 c 128
 296.666666667 295.166666667 253.666666667 313 203 313 c 0
 155 313 113.333333333 296.666666667 78 264 c 1
 147 151 l 2
 149.666666667 146.333333333 151 142.333333333 151 139 c 0
 151 127.666666667 145.333333333 122 134 122 c 0
 127.333333333 122 121.666666667 125.666666667 117 133 c 2
EndSplineSet
Validated: 1
EndChar

StartChar: I
Encoding: 73 73 44
Width: 296
Flags: HW
LayerCount: 2
Back
Fore
SplineSet
154 387 m 1
 122.666666667 358.333333333 85.6666666667 343 43 341 c 0
 31 340.333333333 25 346 25 358 c 0
 25 368.666666667 30.3333333333 374.333333333 41 375 c 0
 73.6666666667 376.333333333 102 387.333333333 126 408 c 0
 130.666666667 412 151.666666667 434.666666667 189 476 c 1
 189 18 l 1
 292 18 l 2
 304 18 310 12 310 0 c 256
 310 -12 304 -18 292 -18 c 2
 44 -18 l 2
 32.6666666667 -18 27 -12 27 0 c 256
 27 12 32.6666666667 18 44 18 c 2
 154 18 l 1
 154 387 l 1
177 572 m 0
 134.333333333 550.666666667 113 528 113 504 c 0
 113 488.666666667 119.666666667 468.333333333 133 443 c 0
 134.333333333 439.666666667 135 436.666666667 135 434 c 0
 135 422.666666667 129 417 117 417 c 0
 110.333333333 417 105.333333333 420.333333333 102 427 c 0
 86 457.666666667 78 483.666666667 78 505 c 0
 78 543 105.666666667 576 161 604 c 0
 164.333333333 605.333333333 167.333333333 606 170 606 c 0
 181.333333333 606 187 600.333333333 187 589 c 0
 187 581 183.666666667 575.333333333 177 572 c 0
EndSplineSet
Validated: 1
EndChar

StartChar: J
Encoding: 74 74 45
Width: 324
Flags: HW
LayerCount: 2
Back
Fore
SplineSet
240 -60 m 2
 240 -71.3333333333 234 -77 222 -77 c 0
 210.666666667 -77 205 -71.3333333333 205 -60 c 2
 205 393 l 1
 161 359.666666667 124 342.333333333 94 341 c 0
 82 340.333333333 76 346 76 358 c 0
 76 368.666666667 81.6666666667 374.333333333 93 375 c 0
 123 376.333333333 172 408 240 470 c 1
 240 61 l 1
 266.666666667 51 288.333333333 34 305 10 c 128
 321.666666667 -14 330 -40.3333333333 330 -69 c 0
 330 -112.333333333 312.333333333 -147.666666667 277 -175 c 0
 251.666666667 -195 224 -205 194 -205 c 0
 156.666666667 -205 124.166666667 -191.5 96.5 -164.5 c 128
 68.8333333333 -137.5 55 -105.333333333 55 -68 c 0
 55 -54 57.3333333333 -40 62 -26 c 1
 57.3333333333 -26.6666666667 53 -27 49 -27 c 0
 32.3333333333 -27 24 -21.3333333333 24 -10 c 0
 24 -0.666666666667 29.3333333333 4.66666666667 40 6 c 0
 57.3333333333 8 80.3333333333 19.6666666667 109 41 c 1
 130 13 l 1
 103.333333333 -7.66666666667 90 -33.3333333333 90 -64 c 0
 90 -92 100.166666667 -116.833333333 120.5 -138.5 c 128
 140.833333333 -160.166666667 165 -171 193 -171 c 0
 215.666666667 -171 236.666666667 -163.333333333 256 -148 c 0
 282 -127.333333333 295 -101 295 -69 c 0
 295 -27 276.666666667 3.66666666667 240 23 c 1
 240 -60 l 2
223 582 m 0
 180.333333333 560.666666667 159 538 159 514 c 0
 159 498.666666667 165.666666667 478.333333333 179 453 c 0
 180.333333333 450.333333333 181 447.666666667 181 445 c 0
 181 433 175 427 163 427 c 0
 156.333333333 427 151.333333333 430.333333333 148 437 c 0
 132 466.333333333 124 492.333333333 124 515 c 0
 124 553 152 586 208 614 c 0
 210.666666667 615.333333333 213.333333333 616 216 616 c 0
 227.333333333 616 233 609.666666667 233 597 c 0
 233 590.333333333 229.666666667 585.333333333 223 582 c 0
EndSplineSet
Validated: 1
EndChar

StartChar: K
Encoding: 75 75 46
Width: 351
Flags: HW
LayerCount: 2
Back
Fore
SplineSet
71 198 m 0
 71 222.666666667 75.3333333333 247.333333333 84 272 c 1
 64 256 l 1
 64 0 l 2
 64 -11.3333333333 58.3333333333 -17 47 -17 c 0
 35 -17 29 -11.3333333333 29 0 c 2
 29 776 l 2
 29 787.333333333 35 793 47 793 c 0
 58.3333333333 793 64 787.333333333 64 776 c 2
 64 301 l 1
 252 442 l 1
 207 493 l 2
 203.666666667 497 202 501 202 505 c 0
 202 517 208 523 220 523 c 0
 225.333333333 523 229.666666667 521 233 517 c 2
 304 436 l 1
 261.333333333 404.666666667 232.333333333 383.333333333 217 372 c 0
 175 340 148.666666667 316.333333333 138 301 c 0
 116.666666667 270.333333333 106 236 106 198 c 0
 106 147.333333333 123.666666667 104.333333333 159 69 c 128
 194.333333333 33.6666666667 237.333333333 16 288 16 c 0
 300 16 306 10.3333333333 306 -1 c 0
 306 -13 300 -19 288 -19 c 0
 226.666666667 -19 175.166666667 1.83333333333 133.5 43.5 c 128
 91.8333333333 85.1666666667 71 136.666666667 71 198 c 0
EndSplineSet
Validated: 1
EndChar

StartChar: L
Encoding: 76 76 47
Width: 239
Flags: HW
LayerCount: 2
Back
Fore
SplineSet
47 685 m 0
 70.3333333333 683 89.6666666667 690.333333333 105 707 c 1
 117.666666667 725 130.666666667 743.333333333 144 762 c 1
 144 41 l 1
 153.333333333 45.6666666667 163.666666667 48 175 48 c 0
 200.333333333 48 222.666666667 38.3333333333 242 19 c 0
 246 15 248 10.6666666667 248 6 c 0
 248 -6 242 -12 230 -12 c 0
 225.333333333 -12 221.333333333 -10.3333333333 218 -7 c 0
 204.666666667 6.33333333333 191.666666667 13 179 13 c 256
 166.333333333 13 153.666666667 6.66666666667 141 -6 c 0
 136.333333333 -9.33333333333 125.666666667 -21.3333333333 109 -42 c 1
 109 665 l 1
 93 653 71.3333333333 648.333333333 44 651 c 0
 33.3333333333 651.666666667 28 657.333333333 28 668 c 0
 28 680.666666667 34.3333333333 686.333333333 47 685 c 0
EndSplineSet
Validated: 33
EndChar

StartChar: M
Encoding: 77 77 48
Width: 791
Flags: HW
LayerCount: 2
Back
Fore
SplineSet
342 27 m 1
 358 -48 l 2
 360.666666667 -62 354.666666667 -69 340 -69 c 0
 331.333333333 -69 326 -64.3333333333 324 -55 c 2
 302 48 l 1
 386 82.6666666667 428 140.666666667 428 222 c 0
 428 287.333333333 400.333333333 338 345 374 c 0
 313.666666667 394.666666667 279.333333333 405 242 405 c 0
 178 405 128.666666667 378.333333333 94 325 c 0
 74 294.333333333 64 261.666666667 64 227 c 0
 64 161.666666667 91.6666666667 110.666666667 147 74 c 0
 152.333333333 70.6666666667 155 66 155 60 c 0
 155 47.3333333333 149.333333333 41 138 41 c 0
 134.666666667 41 131.333333333 42 128 44 c 0
 102.666666667 60.6666666667 81.6666666667 81.3333333333 65 106 c 1
 65 0 l 2
 65 -11.3333333333 59.3333333333 -17 48 -17 c 0
 36 -17 30 -11.3333333333 30 0 c 2
 30 409 l 2
 30 420.333333333 36 426 48 426 c 0
 59.3333333333 426 65 420.333333333 65 409 c 2
 65 345 l 1
 106.333333333 408.333333333 165.333333333 440 242 440 c 0
 303.333333333 440 356 418.333333333 400 375 c 1
 442.666666667 417.666666667 494 439 554 439 c 0
 596 439 635 427.333333333 671 404 c 0
 737 361.333333333 770 301.333333333 770 224 c 0
 770 182 759.166666667 143.166666667 737.5 107.5 c 128
 715.833333333 71.8333333333 686.333333333 45 649 27 c 1
 665 -53 l 2
 667.666666667 -67 661.666666667 -74 647 -74 c 0
 638.333333333 -74 633 -69 631 -59 c 2
 609 48 l 1
 694.333333333 83.3333333333 737 141.333333333 737 222 c 0
 737 272 718.166666667 315 680.5 351 c 128
 642.833333333 387 599 405 549 405 c 0
 501 405 459 386.333333333 423 349 c 1
 449.666666667 312.333333333 463 270.666666667 463 224 c 0
 463 182 452.166666667 143.166666667 430.5 107.5 c 128
 408.833333333 71.8333333333 379.333333333 45 342 27 c 1
EndSplineSet
Validated: 1
EndChar

StartChar: N
Encoding: 78 78 49
Width: 486
Flags: HW
LayerCount: 2
Back
Fore
SplineSet
128 44 m 0
 102.666666667 60.6666666667 82 81.6666666667 66 107 c 1
 66 0 l 2
 66 -11.3333333333 60 -17 48 -17 c 0
 36.6666666667 -17 31 -11.3333333333 31 0 c 2
 31 409 l 2
 31 420.333333333 36.6666666667 426 48 426 c 0
 60 426 66 420.333333333 66 409 c 2
 65 345 l 1
 107.666666667 411 168 444 246 444 c 0
 288.666666667 444 328.333333333 432 365 408 c 0
 430.333333333 365.333333333 463 305.666666667 463 229 c 0
 463 187 452.166666667 148.333333333 430.5 113 c 128
 408.833333333 77.6666666667 379.333333333 50.6666666667 342 32 c 1
 358 -48 l 2
 360.666666667 -62 355 -69 341 -69 c 0
 331.666666667 -69 326 -64.3333333333 324 -55 c 2
 302 53 l 1
 386 87.6666666667 428 145.333333333 428 226 c 0
 428 292.666666667 400.666666667 343.666666667 346 379 c 0
 316 398.333333333 283 408 247 408 c 0
 181 408 130 380.333333333 94 325 c 0
 74 294.333333333 64 261.666666667 64 227 c 0
 64 161 91.6666666667 110 147 74 c 0
 153 70 156 65.3333333333 156 60 c 0
 156 47.3333333333 150 41 138 41 c 0
 134.666666667 41 131.333333333 42 128 44 c 0
EndSplineSet
Validated: 1
EndChar

StartChar: O
Encoding: 79 79 50
Width: 460
Flags: HW
LayerCount: 2
Back
Fore
SplineSet
119 179 m 2
 282 413 l 1
 336 400.333333333 379.5 375 412.5 337 c 128
 445.5 299 462 253 462 199 c 0
 462 137.666666667 441.166666667 86.1666666667 399.5 44.5 c 128
 357.833333333 2.83333333333 306.333333333 -18 245 -18 c 256
 183.666666667 -18 132.166666667 2.83333333333 90.5 44.5 c 128
 48.8333333333 86.1666666667 28 137.666666667 28 199 c 256
 28 260.333333333 48.8333333333 311.833333333 90.5 353.5 c 128
 132.166666667 395.166666667 183.666666667 416 245 416 c 0
 256.333333333 416 262 410 262 398 c 0
 262 386.666666667 256.333333333 381 245 381 c 0
 194.333333333 381 151.333333333 363.333333333 116 328 c 128
 80.6666666667 292.666666667 63 249.666666667 63 199 c 256
 63 148.333333333 80.6666666667 105.333333333 116 70 c 128
 151.333333333 34.6666666667 194.333333333 17 245 17 c 256
 295.666666667 17 338.666666667 34.6666666667 374 70 c 128
 409.333333333 105.333333333 427 148.333333333 427 199 c 0
 427 239.666666667 415 276 391 308 c 128
 367 340 335.666666667 361.666666667 297 373 c 1
 148 159 l 2
 144 153.666666667 139.333333333 151 134 151 c 0
 122 151 116 157 116 169 c 0
 116 173 117 176.333333333 119 179 c 2
EndSplineSet
Validated: 1
EndChar

StartChar: P
Encoding: 80 80 51
Width: 559
Flags: HW
LayerCount: 2
Back
Fore
SplineSet
79 426 m 0
 117 426 140.333333333 389.666666667 149 317 c 1
 169 350.333333333 195.666666667 376.833333333 229 396.5 c 128
 262.333333333 416.166666667 298.333333333 426 337 426 c 0
 397.666666667 426 449 405 491 363 c 128
 533 321 554 269.666666667 554 209 c 0
 554 147.666666667 533.166666667 96 491.5 54 c 128
 449.833333333 12 398.333333333 -9 337 -9 c 0
 291.666666667 -9 250.666666667 4 214 30 c 0
 208.666666667 34 206 38.6666666667 206 44 c 0
 206 56 211.666666667 62 223 62 c 0
 227.666666667 62 231.333333333 61 234 59 c 0
 265.333333333 37.6666666667 299.666666667 27 337 27 c 0
 387.666666667 27 430.666666667 44.6666666667 466 80 c 128
 501.333333333 115.333333333 519 158.333333333 519 209 c 256
 519 259.666666667 501.333333333 302.666666667 466 338 c 128
 430.666666667 373.333333333 387.666666667 391 337 391 c 256
 286.333333333 391 243.333333333 373.333333333 208 338 c 128
 172.666666667 302.666666667 155 259.666666667 155 209 c 1
 120 208 l 1
 116.666666667 330 103 391 79 391 c 0
 67 391 61 396.666666667 61 408 c 0
 61 420 67 426 79 426 c 0
300 224 m 2
 122 56 l 1
 122 -326 l 1
 88 -282 l 2
 76 -269.333333333 61.6666666667 -263 45 -263 c 0
 38.3333333333 -263 32.6666666667 -263.333333333 28 -264 c 0
 14 -266 7 -260.333333333 7 -247 c 0
 7 -237.666666667 12 -232 22 -230 c 0
 50 -225.333333333 71.6666666667 -227.333333333 87 -236 c 1
 87 72 l 1
 277 250 l 2
 280.333333333 253.333333333 284 255 288 255 c 0
 300 255 306 249 306 237 c 0
 306 232.333333333 304 228 300 224 c 2
EndSplineSet
Validated: 33
EndChar

StartChar: Q
Encoding: 81 81 52
Width: 548
Flags: HW
LayerCount: 2
Back
Fore
SplineSet
483 391 m 0
 459 391 445 330 441 208 c 1
 407 209 l 1
 407 259.666666667 389.333333333 302.666666667 354 338 c 128
 318.666666667 373.333333333 275.666666667 391 225 391 c 256
 174.333333333 391 131.333333333 373.333333333 96 338 c 128
 60.6666666667 302.666666667 43 259.666666667 43 209 c 256
 43 158.333333333 60.6666666667 115.333333333 96 80 c 128
 131.333333333 44.6666666667 174.333333333 27 225 27 c 0
 261.666666667 27 296 37.6666666667 328 59 c 0
 330.666666667 61 334 62 338 62 c 0
 350 62 356 56 356 44 c 0
 356 38 353.333333333 33.3333333333 348 30 c 0
 309.333333333 4 268.333333333 -9 225 -9 c 0
 163.666666667 -9 112.166666667 12 70.5 54 c 128
 28.8333333333 96 8 147.666666667 8 209 c 0
 8 269.666666667 29 321 71 363 c 128
 113 405 164.333333333 426 225 426 c 0
 263.666666667 426 299.666666667 416.166666667 333 396.5 c 128
 366.333333333 376.833333333 392.666666667 350.333333333 412 317 c 1
 421.333333333 389.666666667 445 426 483 426 c 0
 494.333333333 426 500 420 500 408 c 0
 500 396.666666667 494.333333333 391 483 391 c 0
285 250 m 2
 475 72 l 1
 475 -236 l 1
 490.333333333 -226.666666667 512 -224.666666667 540 -230 c 0
 549.333333333 -232 554 -237.666666667 554 -247 c 0
 554 -261 547 -266.666666667 533 -264 c 0
 529.666666667 -263.333333333 524 -263 516 -263 c 0
 499.333333333 -263 485 -269.333333333 473 -282 c 0
 461.666666667 -296.666666667 450.666666667 -311.333333333 440 -326 c 1
 440 56 l 1
 261 224 l 2
 257 228 255 232.333333333 255 237 c 0
 255 249 261 255 273 255 c 0
 277.666666667 255 281.666666667 253.333333333 285 250 c 2
EndSplineSet
Validated: 33
EndChar

StartChar: R
Encoding: 82 82 53
Width: 409
Flags: HW
LayerCount: 2
Back
Fore
SplineSet
403 314 m 0
 404.333333333 311.333333333 405 308.666666667 405 306 c 0
 405 294.666666667 398.666666667 289 386 289 c 0
 379.333333333 289 374.333333333 292.666666667 371 300 c 0
 355.666666667 332 333 357.5 303 376.5 c 128
 273 395.5 240 405 204 405 c 0
 144 405 96 380.666666667 60 332 c 1
 114 258 l 2
 116 254.666666667 117 251.333333333 117 248 c 0
 117 236 111 230 99 230 c 0
 93.6666666667 230 89 232.666666667 85 238 c 2
 46 292 l 1
 46 0 l 2
 46 -11.3333333333 40.3333333333 -17 29 -17 c 0
 17 -17 11 -11.3333333333 11 0 c 2
 11 409 l 2
 11 420.333333333 17 426 29 426 c 0
 40.3333333333 426 46 420.333333333 46 409 c 2
 46 368 l 1
 91.3333333333 416 145.666666667 440 209 440 c 0
 251.666666667 440 290.166666667 428.833333333 324.5 406.5 c 128
 358.833333333 384.166666667 385 353.333333333 403 314 c 0
EndSplineSet
Validated: 1
EndChar

StartChar: S
Encoding: 83 83 54
Width: 359
Flags: HW
LayerCount: 2
Back
Fore
SplineSet
172 180 m 0
 130.666666667 180 95.6666666667 194.5 67 223.5 c 128
 38.3333333333 252.5 24 287.666666667 24 329 c 256
 24 370.333333333 38.3333333333 405.666666667 67 435 c 128
 95.6666666667 464.333333333 130.666666667 479 172 479 c 0
 210 479 240.333333333 468.666666667 263 448 c 0
 267 444.666666667 269 440.666666667 269 436 c 0
 269 424 263 418 251 418 c 0
 247 418 243 419.333333333 239 422 c 0
 223.666666667 436.666666667 201.333333333 444 172 444 c 0
 140 444 113.166666667 432.833333333 91.5 410.5 c 128
 69.8333333333 388.166666667 59 361 59 329 c 0
 59 297.666666667 70 270.833333333 92 248.5 c 128
 114 226.166666667 140.666666667 215 172 215 c 0
 200.666666667 215 222 221.666666667 236 235 c 1
 224 237.666666667 211.666666667 237.666666667 199 235 c 0
 183 231.666666667 172.666666667 230 168 230 c 0
 156.666666667 230 151 236.333333333 151 249 c 0
 151 257 155 262.333333333 163 265 c 0
 179 270.333333333 195 273 211 273 c 0
 252.333333333 273 287.333333333 258 316 228 c 128
 344.666666667 198 359 162.333333333 359 121 c 0
 359 88.3333333333 348.333333333 58.3333333333 327 31 c 0
 297.666666667 -7 258.666666667 -26 210 -26 c 0
 175.333333333 -26 144.666666667 -16 118 4 c 0
 89.3333333333 24.6666666667 72 51.6666666667 66 85 c 0
 63.3333333333 99 69 106 83 106 c 0
 92.3333333333 106 98 101 100 91 c 0
 104 66.3333333333 117.333333333 46.3333333333 140 31 c 0
 160.666666667 16.3333333333 184 9 210 9 c 0
 247.333333333 9 277 23.3333333333 299 52 c 0
 315.666666667 73.3333333333 324 96.6666666667 324 122 c 0
 324 164 305.666666667 196.666666667 269 220 c 1
 246.333333333 193.333333333 214 180 172 180 c 0
EndSplineSet
Validated: 33
EndChar

StartChar: T
Encoding: 84 84 55
Width: 418
Flags: HW
LayerCount: 2
Back
Fore
SplineSet
158 -50 m 1
 158 353 l 1
 83 353 l 2
 71.6666666667 353 66 359 66 371 c 0
 66 382.333333333 71.6666666667 388 83 388 c 2
 158 388 l 1
 158 460 l 2
 158 471.333333333 163.666666667 477 175 477 c 0
 187 477 193 471.333333333 193 460 c 2
 193 388 l 1
 380 388 l 2
 391.333333333 388 397 382.333333333 397 371 c 0
 397 359 391.333333333 353 380 353 c 2
 193 353 l 1
 193 35 l 1
 212.333333333 50.3333333333 232.333333333 58 253 58 c 0
 276.333333333 58 288 51.3333333333 288 38 c 0
 288 26 283.333333333 20 274 20 c 0
 272 20 268.833333333 20.5 264.5 21.5 c 128
 260.166666667 22.5 256.666666667 23 254 23 c 0
 239.333333333 23 222 13.6666666667 202 -5 c 0
 197.333333333 -9 182.666666667 -24 158 -50 c 1
EndSplineSet
Validated: 1
EndChar

StartChar: U
Encoding: 85 85 56
Width: 560
Flags: HW
LayerCount: 2
Back
Fore
SplineSet
149 6 m 0
 83.6666666667 48.6666666667 51 108.666666667 51 186 c 0
 51 228 61.8333333333 266.833333333 83.5 302.5 c 128
 105.166666667 338.166666667 134.666666667 365 172 383 c 1
 156 462 l 2
 153.333333333 476 159 483 173 483 c 0
 182.333333333 483 188 478.333333333 190 469 c 2
 212 362 l 1
 127.333333333 327.333333333 85 269.333333333 85 188 c 0
 85 121.333333333 112.666666667 70.3333333333 168 35 c 0
 198 15.6666666667 231 6 267 6 c 0
 333 6 384 33.6666666667 420 89 c 0
 440 119.666666667 450 152.666666667 450 188 c 0
 450 254 422.333333333 304.666666667 367 340 c 0
 361 344 358 349 358 355 c 0
 358 367 364 373 376 373 c 0
 379.333333333 373 382.666666667 372 386 370 c 0
 410.666666667 354 431.333333333 333.333333333 448 308 c 1
 448 414 l 2
 448 426 454 432 466 432 c 0
 477.333333333 432 483 426 483 414 c 2
 483 5 l 2
 483 -6.33333333333 477.333333333 -12 466 -12 c 0
 454 -12 448 -6.33333333333 448 5 c 2
 448 68 l 1
 405.333333333 3.33333333333 345 -29 267 -29 c 0
 224.333333333 -29 185 -17.3333333333 149 6 c 0
EndSplineSet
Validated: 1
EndChar

StartChar: V
Encoding: 86 86 57
Width: 395
Flags: HW
LayerCount: 2
Back
Fore
SplineSet
304 381 m 0
 370 338.333333333 403 279.333333333 403 204 c 0
 403 140.666666667 381 87.3333333333 337 44 c 128
 293 0.666666666667 239.666666667 -19.6666666667 177 -17 c 0
 167.666666667 -18.3333333333 161.666666667 -14.3333333333 159 -5 c 2
 22 449 l 2
 17.3333333333 464.333333333 23 472 39 472 c 0
 47 472 52.3333333333 467.666666667 55 459 c 2
 188 17 l 1
 238.666666667 17.6666666667 281.333333333 36 316 72 c 128
 350.666666667 108 368 151.666666667 368 203 c 0
 368 266.333333333 340.333333333 316 285 352 c 0
 279.666666667 355.333333333 277 360 277 366 c 0
 277 378.666666667 282.666666667 385 294 385 c 0
 297.333333333 385 300.666666667 383.666666667 304 381 c 0
EndSplineSet
Validated: 33
EndChar

StartChar: W
Encoding: 87 87 58
Width: 663
Flags: HW
LayerCount: 2
Back
Fore
SplineSet
366 319 m 1
 390 285 402.333333333 246.666666667 403 204 c 1
 459 15 l 1
 509.666666667 15.6666666667 552.166666667 33.8333333333 586.5 69.5 c 128
 620.833333333 105.166666667 638 148.666666667 638 200 c 0
 638 262.666666667 610.333333333 312.333333333 555 349 c 0
 549.666666667 352.333333333 547 357.333333333 547 364 c 0
 547 376 552.666666667 382 564 382 c 0
 567.333333333 382 570.666666667 381 574 379 c 0
 640 336.333333333 673 277 673 201 c 0
 673 137.666666667 651.333333333 84.6666666667 608 42 c 128
 564.666666667 -0.666666666667 511.666666667 -21 449 -19 c 1
 437.666666667 -21.6666666667 430.666666667 -18 428 -8 c 2
 389 126 l 1
 373 80.6666666667 345.833333333 44.6666666667 307.5 18 c 128
 269.166666667 -8.66666666667 226 -21.3333333333 178 -20 c 0
 168 -22 161.666666667 -18 159 -8 c 2
 22 446 l 2
 17.3333333333 461.333333333 23 469 39 469 c 0
 47 469 52.3333333333 464.666666667 55 456 c 2
 187 15 l 1
 239 15 282.333333333 33.3333333333 317 70 c 128
 351.666666667 106.666666667 368.666666667 151 368 203 c 0
 366.666666667 265 339 313.666666667 285 349 c 0
 279.666666667 352.333333333 277 357.333333333 277 364 c 0
 277 376 282.666666667 382 294 382 c 0
 298.666666667 382 306.333333333 378 317 370 c 1
 291 446 l 2
 290.333333333 448 290 450 290 452 c 0
 290 463.333333333 296.333333333 469 309 469 c 0
 317 469 322.333333333 464.666666667 325 456 c 2
 366 319 l 1
EndSplineSet
Validated: 33
EndChar

StartChar: X
Encoding: 88 88 59
Width: 407
Flags: HW
LayerCount: 2
Back
Fore
SplineSet
395 12 m 2
 398.333333333 8.66666666667 400 4.66666666667 400 0 c 0
 400 -12 394 -18 382 -18 c 0
 378 -18 374 -16 370 -12 c 2
 247 120 l 1
 186.333333333 38.6666666667 116 -7 36 -17 c 0
 22.6666666667 -18.3333333333 16 -12.6666666667 16 0 c 0
 16 10 21 15.6666666667 31 17 c 0
 103 26.3333333333 167 70 223 148 c 1
 62 323 l 2
 58.6666666667 326.333333333 57 330.333333333 57 335 c 0
 57 347 63 353 75 353 c 0
 79 353 83 351 87 347 c 2
 243 178 l 1
 273 230 288 282.333333333 288 335 c 0
 288 357.666666667 285.333333333 379 280 399 c 0
 276 414.333333333 281.666666667 422 297 422 c 0
 305.666666667 422 311 417.666666667 313 409 c 0
 319.666666667 383 323 358.333333333 323 335 c 0
 323 272.333333333 304.666666667 211 268 151 c 1
 395 12 l 2
EndSplineSet
Validated: 1
EndChar

StartChar: Y
Encoding: 89 89 60
Width: 386
Flags: HW
LayerCount: 2
Back
Fore
SplineSet
296 381 m 0
 362 338.333333333 395 279.333333333 395 204 c 0
 395 145.333333333 375.666666667 94.6666666667 337 52 c 128
 298.333333333 9.33333333333 249.666666667 -13.6666666667 191 -17 c 1
 264 -262 l 2
 266 -268 265.166666667 -273.333333333 261.5 -278 c 128
 257.833333333 -282.666666667 253 -285 247 -285 c 0
 239 -285 233.666666667 -280.666666667 231 -272 c 2
 14 449 l 2
 9.33333333333 464.333333333 15 472 31 472 c 0
 39 472 44.3333333333 467.666666667 47 459 c 2
 180 17 l 1
 230.666666667 17.6666666667 273.333333333 36 308 72 c 128
 342.666666667 108 360 151.666666667 360 203 c 0
 360 266.333333333 332.333333333 316 277 352 c 0
 271.666666667 355.333333333 269 360 269 366 c 0
 269 378.666666667 274.666666667 385 286 385 c 0
 289.333333333 385 292.666666667 383.666666667 296 381 c 0
EndSplineSet
Validated: 1
EndChar

StartChar: Z
Encoding: 90 90 61
Width: 536
Flags: HW
LayerCount: 2
Back
Fore
SplineSet
58 0 m 1
 384 253 l 1
 359.333333333 258.333333333 338.5 270.666666667 321.5 290 c 128
 304.5 309.333333333 295.333333333 331.333333333 294 356 c 1
 49 356 l 2
 37.6666666667 356 32 362 32 374 c 0
 32 385.333333333 37.6666666667 391 49 391 c 2
 297 391 l 1
 302.333333333 411 314.666666667 429 334 445 c 0
 338.666666667 447.666666667 343 449 347 449 c 0
 357.666666667 449 363 443.333333333 363 432 c 0
 363 427.333333333 358.833333333 420 350.5 410 c 128
 342.166666667 400 337.333333333 393.666666667 336 391 c 1
 466 391 l 2
 477.333333333 391 483 385 483 373 c 0
 483 361.666666667 477.333333333 356 466 356 c 2
 327 356 l 1
 328.333333333 337.333333333 336.5 321 351.5 307 c 128
 366.5 293 383.333333333 286 402 286 c 0
 418.666666667 286 434.333333333 291.666666667 449 303 c 1
 471 276 l 1
 160 35 l 1
 491 35 l 2
 502.333333333 35 508 29.3333333333 508 18 c 0
 508 6 502.333333333 0 491 0 c 2
 58 0 l 1
EndSplineSet
Validated: 1
EndChar

StartChar: bracketleft
Encoding: 91 91 62
Width: 1000
Flags: HW
LayerCount: 2
Back
Fore
SplineSet
152 377 m 1
 44 377 l 1
 65.3333333333 401.666666667 78 417 82 423 c 0
 94.6666666667 441.666666667 101 459.666666667 101 477 c 0
 101 484.333333333 100 492 98 500 c 1
 141 513 l 1
 144.333333333 501.666666667 146 490 146 478 c 0
 146 458.666666667 142 440 134 422 c 1
 202 422 l 1
 193 336 l 1
 336 336 l 1
 336 291 l 1
 188 291 l 1
 176 189 l 2
 175.333333333 183 175 177.333333333 175 172 c 0
 175 148.666666667 182.333333333 137 197 137 c 0
 204.333333333 137 212.666666667 143.333333333 222 156 c 0
 226.666666667 162 229 170.666666667 229 182 c 0
 229 190 226.666666667 194 222 194 c 0
 221 194 l 2
 221 194 l 2
 220 194 l 0
 219 194 l 0
 218.333333333 194 217.666666667 193.666666667 217 193 c 2
 206 237 l 1
 212 238.333333333 217.666666667 239 223 239 c 0
 256.333333333 239 273 218.666666667 273 178 c 0
 273 125.333333333 243.333333333 99 184 99 c 0
 146 99 127 119.333333333 127 160 c 0
 127 170.666666667 128.666666667 182.666666667 132 196 c 1
 142 291 l 1
 13 291 l 1
 13 336 l 1
 147 336 l 1
 152 377 l 1
523 521 m 1
 527 509 529 497 529 485 c 0
 529 451 514.666666667 417.666666667 486 385 c 1
 406 385 l 1
 385 196 l 2
 384.333333333 190 384 186.333333333 384 185 c 0
 384 155 404.666666667 140 446 140 c 0
 480.666666667 140 506.666666667 151.666666667 524 175 c 0
 529.333333333 182.333333333 532 192.333333333 532 205 c 0
 532 214.333333333 529.666666667 220.666666667 525 224 c 0
 524 224 524 224 523 224 c 2
 521 224 l 1
 511 268 l 1
 515.666666667 269.333333333 520.333333333 270 525 270 c 0
 541.666666667 270 554.333333333 263.166666667 563 249.5 c 128
 571.666666667 235.833333333 576 220 576 202 c 0
 576 182 570.666666667 164.666666667 560 150 c 0
 533.333333333 113.333333333 496 95 448 95 c 0
 419.333333333 95 394.666666667 102.333333333 374 117 c 0
 350.666666667 133.666666667 339 155.666666667 339 183 c 0
 339 185 339.666666667 192 341 204 c 2
 366 430 l 1
 465 430 l 1
 477 447.333333333 483 465.666666667 483 485 c 0
 483 493 482 500.333333333 480 507 c 1
 523 521 l 1
448 238 m 1
 449 237 l 1
 427 198 l 1
 410.333333333 207.333333333 402 220 402 236 c 0
 402 258.666666667 419.666666667 283.333333333 455 310 c 0
 464.333333333 317.333333333 491 336 535 366 c 0
 537 367.333333333 540.666666667 370 546 374 c 1
 579 344 l 1
 571.666666667 336 557.666666667 325 537 311 c 2
 489 279 l 2
 465.666666667 263.666666667 452 250 448 238 c 1
709 430 m 1
 711 438.666666667 712 445.333333333 712 450 c 0
 712 456.666666667 707.333333333 460.333333333 698 461 c 1
 702.666666667 447.666666667 705 435.666666667 705 425 c 0
 705 423 705 423 705 421 c 2
 709 430 l 1
869 268 m 1
 884 236 l 1
 817 236 l 1
 851 114 l 1
 850.333333333 110.666666667 850 107 850 103 c 0
 850 77.6666666667 858 65 874 65 c 0
 892 65 901 78 901 104 c 0
 901 111.333333333 898.333333333 115 893 115 c 0
 892 115 892 115 891 115 c 2
 880 158 l 1
 886 160 892 161 898 161 c 0
 930 161 946 141 946 101 c 0
 946 47 916.666666667 20 858 20 c 0
 820 20 801 40.6666666667 801 82 c 0
 801 91.3333333333 802 101.666666667 804 113 c 1
 771 236 l 1
 676 236 l 1
 619 103 l 1
 578 121 l 1
 633 256 l 1
 633 281 l 1
 645 282 l 1
 681 366 l 1
 618 366 l 1
 646 398 660 419.666666667 660 431 c 0
 660 435 652.666666667 458 638 500 c 1
 664.666666667 503.333333333 683.333333333 505 694 505 c 0
 736 505 757 487 757 451 c 0
 757 435.666666667 754.666666667 422.333333333 750 411 c 1
 768 411 l 1
 804 282 l 1
 823 282 l 1
 819 295.333333333 817 308.5 817 321.5 c 128
 817 334.5 820 347.333333333 826 360 c 1
 864 344 l 1
 860.666666667 334.666666667 859 324.666666667 859 314 c 0
 859 299.333333333 862.333333333 284 869 268 c 1
696 282 m 1
 757 282 l 1
 734 366 l 1
 731 366 l 1
 696 282 l 1
EndSplineSet
Validated: 1
EndChar

StartChar: b
Encoding: 98 98 69
Width: 539
Flags: HW
LayerCount: 2
Back
Fore
SplineSet
92 -18 m 0
 80 -18 74 -12 74 0 c 256
 74 12 80 18 92 18 c 0
 116 18 129.666666667 78.6666666667 133 200 c 1
 168 200 l 1
 168 149.333333333 185.666666667 106.333333333 221 71 c 128
 256.333333333 35.6666666667 299.333333333 18 350 18 c 256
 400.666666667 18 443.666666667 35.6666666667 479 71 c 128
 514.333333333 106.333333333 532 149.333333333 532 200 c 256
 532 250.666666667 514.333333333 293.666666667 479 329 c 128
 443.666666667 364.333333333 400.666666667 382 350 382 c 0
 312.666666667 382 278.333333333 371 247 349 c 0
 244.333333333 347 240.666666667 346 236 346 c 0
 224.666666667 346 219 352 219 364 c 0
 219 369.333333333 221.666666667 374 227 378 c 0
 263.666666667 404 304.666666667 417 350 417 c 0
 410.666666667 417 462 396 504 354 c 128
 546 312 567 260.666666667 567 200 c 0
 567 138.666666667 546.166666667 87 504.5 45 c 128
 462.833333333 3 411.333333333 -18 350 -18 c 0
 311.333333333 -18 275.333333333 -8.16666666667 242 11.5 c 128
 208.666666667 31.1666666667 182 57.6666666667 162 91 c 1
 153.333333333 18.3333333333 130 -18 92 -18 c 0
135 813.8 m 1
 135 352 l 1
 314 184 l 2
 317.333333333 180.666666667 319 176.333333333 319 171 c 0
 319 159 313.333333333 153 302 153 c 0
 297.558052435 153 293.558052435 154.666666667 290 158 c 2
 100 336 l 1
 100 742 l 1
 87.3333333333 736 72 733 54 733 c 0
 49.3333333333 733 42.3333333333 733.833333333 33 735.5 c 128
 23.6666666667 737.166666667 19 743 19 753 c 0
 19.6666666667 765 26.2195638021 770.553548177 38.6586914062 769.660644531 c 0
 50.2195638021 768.553548177 58.3333333333 768 63 768 c 4
 79.6666666667 769.333333333 93.6666666667 775.666666667 105 787 c 0
 123.600240041 817.219927988 l 0
 125.200080014 819.739975996 127.066115769 820.964783748 129.198347307 820.894351245 c 0
 133.066115769 820.964783748 135 818.6 135 813.8 c 1
EndSplineSet
EndChar

StartChar: Adieresis
Encoding: 196 196 112
Width: 460
Flags: HW
LayerCount: 2
Back
Fore
SplineSet
433 356 m 0
 433 369.333333333 420.666666667 376 396 376 c 1
 391.333333333 370.666666667 384.666666667 358 376 338 c 0
 368.666666667 322 360.333333333 310 351 302 c 1
 335.666666667 330 327 345.666666667 325 349 c 0
 311.666666667 370.333333333 300.333333333 382.333333333 291 385 c 1
 281.666666667 380.333333333 277 373.666666667 277 365 c 0
 277 357.666666667 285.166666667 342.5 301.5 319.5 c 128
 317.833333333 296.5 326 283.666666667 326 281 c 2
 326 259 l 1
 231 245 l 2
 187.666666667 238.333333333 155.666666667 228 135 214 c 0
 107 194 95 164.333333333 99 125 c 1
 94.3333333333 120.333333333 73 112.333333333 35 101 c 1
 35 95 36.6666666667 86.8333333333 40 76.5 c 128
 43.3333333333 66.1666666667 45 59 45 55 c 1
 53 55 65 56.1666666667 81 58.5 c 128
 97 60.8333333333 109 62 117 62 c 0
 123.666666667 62 132.166666667 58 142.5 50 c 128
 152.833333333 42 160.666666667 38 166 38 c 2
 267 38 l 1
 257.666666667 44.6666666667 244.666666667 54 228 66 c 1
 243.333333333 86 252.333333333 97.3333333333 255 100 c 0
 264.333333333 110.666666667 273 117.333333333 281 120 c 1
 287.666666667 112 295.5 98.3333333333 304.5 79 c 128
 313.5 59.6666666667 321.333333333 46 328 38 c 1
 363 38 l 1
 363 40.6666666667 360.166666667 46.6666666667 354.5 56 c 128
 348.833333333 65.3333333333 346.333333333 71 347 73 c 0
 368.333333333 141.666666667 378.333333333 188.666666667 377 214 c 0
 378.333333333 215.333333333 384.666666667 219.833333333 396 227.5 c 128
 407.333333333 235.166666667 413 239.666666667 413 241 c 0
 400.333333333 263.666666667 394 279 394 287 c 0
 394 291 394.666666667 294 396 296 c 0
 420.666666667 330 433 350 433 356 c 0
EndSplineSet
Validated: 41
EndChar

